<svg width="225" height="57" viewBox="0 0 225 57" fill="#000" xmlns="http://www.w3.org/2000/svg">
<path d="M0.5 35.22V13.38C0.5 6.86 3.76 3.6 10.28 3.6H27.86L31.4 6.36V10.26H10.46C8.7 10.26 7.82 11.12 7.82 12.84V35.76C7.82 37.48 8.7 38.34 10.46 38.34H25.28V26.88H16.52V20.22H32.6V45H10.28C3.76 45 0.5 41.74 0.5 35.22ZM40.5083 35.52V22.98C40.5083 16.66 43.6683 13.5 49.9883 13.5H58.3883C64.6683 13.5 67.8083 16.66 67.8083 22.98V35.52C67.8083 41.84 64.6683 45 58.3883 45H49.9883C43.6683 45 40.5083 41.84 40.5083 35.52ZM47.5283 36.12C47.5283 37.96 48.4483 38.88 50.2883 38.88H58.0283C59.8683 38.88 60.7883 37.96 60.7883 36.12V22.38C60.7883 20.54 59.8683 19.62 58.0283 19.62H50.2883C48.4483 19.62 47.5283 20.54 47.5283 22.38V36.12ZM76.9203 45V3.6H96.2403C102.76 3.6 106.02 6.86 106.02 13.38V17.16C106.02 18.52 105.62 19.68 104.82 20.64L102.72 23.16L105.24 25.26C106.56 26.34 107.22 27.94 107.22 30.06V35.22C107.22 41.74 103.96 45 97.4403 45H76.9203ZM84.2403 38.34H97.2603C99.0203 38.34 99.9003 37.48 99.9003 35.76V29.46C99.9003 27.74 99.0203 26.88 97.2603 26.88H84.2403V38.34ZM84.2403 20.22H96.0603C97.8203 20.22 98.7003 19.34 98.7003 17.58V12.84C98.7003 11.12 97.8203 10.26 96.0603 10.26H84.2403V20.22ZM115.045 35.52V13.5H122.065V36.12C122.065 37.96 122.985 38.88 124.825 38.88H134.725V13.5H141.745V45H124.525C118.205 45 115.045 41.84 115.045 35.52ZM149.594 42.66V38.88H163.454C165.294 38.88 166.214 37.9 166.214 35.94C166.214 33.9 165.454 32.74 163.934 32.46L157.214 31.38C152.134 30.5 149.594 27.62 149.594 22.74C149.594 16.58 152.754 13.5 159.074 13.5H168.614L171.794 15.84V19.62H159.374C157.494 19.62 156.554 20.6 156.554 22.56C156.554 24.52 157.354 25.64 158.954 25.92L165.674 27C170.714 27.84 173.234 30.74 173.234 35.7C173.234 41.9 170.054 45 163.694 45H152.774L149.594 42.66ZM180.787 34.56V0.599999H187.807V35.28C187.807 37.88 189.127 39.28 191.767 39.48V45.54C184.447 45.54 180.787 41.88 180.787 34.56ZM194.601 14.58L195.321 13.5H201.381L209.301 38.88H210.201L218.121 13.5H224.181L224.901 14.58L211.161 57H205.101L204.381 55.92L208.161 45H204.501L194.601 14.58Z" fill="black"/>
</svg>
