<svg xmlns="http://www.w3.org/2000/svg" xmlns:xlink="http://www.w3.org/1999/xlink" viewBox="0 0 1105.13 214.11"><defs><style>.cls-1{fill:#494F55;}.cls-2{fill:url(#linear-gradient);}</style><linearGradient id="linear-gradient" x1="128.24" y1="-45.01" x2="128.24" y2="228.23" gradientUnits="userSpaceOnUse"><stop offset="0.01" stop-color="#ff6700"/><stop offset="0.48" stop-color="#ff3044"/><stop offset="0.82" stop-color="#ff0d6f"/><stop offset="1" stop-color="#ff007f"/></linearGradient></defs><g id="Layer_2" data-name="Layer 2"><g id="Layer_1-2" data-name="Layer 1"><path class="cls-1" d="M396.31,90.86h74.74v2c0,11-1.46,45.19-23.93,67.42-16.86,16.85-37.62,21.49-57.89,21.49s-41.28-4.15-59.11-22c-5.62-5.62-24.18-26.14-24.18-62.77,0-31.51,14.17-50.81,23.94-60.58,12.21-12.45,32.73-24.91,64.23-24.91,12.22,0,25.16,1.95,37.62,8.55,10.5,5.37,22,15.14,30.53,29.8l-27.6,14.9a44.41,44.41,0,0,0-19.05-19.3,53.41,53.41,0,0,0-23-5.13c-12.95,0-27.6,4.64-37.62,14.41-9.28,9-16.36,24.67-16.36,43,0,21.74,9.28,34.68,16.12,41.28,7.33,7.08,18.81,13.92,36.15,13.92,10.75,0,23-2.93,32-9.77a43.39,43.39,0,0,0,15.39-24.91h-42Z"/><path class="cls-1" d="M581.7,83.78c10.5,9.52,17.83,24.18,17.83,41.52a55.58,55.58,0,0,1-17.83,41.28c-9,8.3-22.72,14.9-42.74,14.9s-33.71-6.6-42.75-14.9a55.58,55.58,0,0,1-17.83-41.28c0-17.34,7.33-32,17.83-41.52,9-8.31,22.72-14.9,42.75-14.9S572.66,75.47,581.7,83.78Zm-13,41.52c0-16.61-12.7-30-29.79-30s-29.8,13.43-29.8,30a29.8,29.8,0,1,0,59.59,0Z"/><path class="cls-1" d="M655,15.14c9,0,26.63,0,39.82,10.26,9.52,7.33,15.14,20,15.14,33.71,0,21-13.92,29.55-18.32,32a38.32,38.32,0,0,1,21.25,10.26c9.77,9.28,11.73,22,11.73,30.53,0,9.53-2.69,23-13.93,33-12.21,10.74-27.11,13.19-41.27,13.19H614.67V15.14ZM646.43,82.8h9c4.89,0,24.67-.49,24.67-21.25,0-14.9-11.48-20.52-24.42-20.52h-9.28Zm0,69.37H660.1c5.87,0,14.66-.25,21.74-4.4,7.82-4.64,10-12.46,10-18.81,0-5.13-1.71-13.92-12-18.56-6.84-3.18-14.9-3.18-21.74-3.18H646.43Z"/><path class="cls-1" d="M767.09,72.3v59.84c0,5.62.49,13.19,6.35,18.56a24,24,0,0,0,30.28,0c5.87-5.37,6.35-12.94,6.35-18.56V72.3h29.8V137c0,9.53-1.22,22.23-12.94,32.49-9.77,8.55-25.4,12-38.35,12s-28.58-3.42-38.35-12c-11.72-10.26-12.94-23-12.94-32.49V72.3h29.8Z"/><path class="cls-1" d="M913.64,97.46a24.74,24.74,0,0,0-17.34-7.09c-7.09,0-11.48,3.42-11.48,8.55,0,2.69,1.22,6.84,9.52,9.53l7.09,2.19c8.3,2.69,20.76,6.84,26.86,15.15a30.59,30.59,0,0,1,5.38,17.58,35.16,35.16,0,0,1-11.73,26.87c-8.55,7.82-18.81,11.24-31.75,11.24-22,0-34.44-10.51-41-17.59l15.63-18.07c5.86,6.84,14.65,12.21,23.45,12.21,8.3,0,14.65-4.15,14.65-11.48,0-6.6-5.37-9.28-9.28-10.75l-6.84-2.44c-7.57-2.69-16.36-6.11-22.71-12.7A28.36,28.36,0,0,1,856,100.39a31.41,31.41,0,0,1,11-23.94c8.3-6.59,19-7.57,27.6-7.57a52.78,52.78,0,0,1,33.7,11.23Z"/><path class="cls-1" d="M972.26,0V178.06h-29.8V0Z"/><path class="cls-1" d="M1025,162.18,974.7,72.3h34.68l32.73,60.08,29.31-60.08h33.71l-74.46,141.81H997Z"/><path class="cls-2" d="M245.23,99.64A36.11,36.11,0,0,0,240,95.33a14.8,14.8,0,0,1-4.31-20.06c0-.07.09-.14.13-.22,4.72-7.58,5.76-15.43,5.76-22.23,0-7.59-1.31-22.24-12.55-33C215.41,7,194,6.53,184.55,6.53h-95c-19.77,0-45,3-65.58,24.27C10,45.07,0,66.84,0,94.13c0,33.28,14.76,53.56,24.53,63.57C44,177.69,65.48,181,85.47,181H196.85c10.72,0,31.64-1,46-14.91,6.79-6.8,13.6-17.79,13.6-35.31C256.48,115.33,251,105.39,245.23,99.64ZM94.77,108a16.72,16.72,0,0,0,9.64,3.23h28.93c0,19.73-16,34.67-35.72,34.67H87.35c-12.76,0-24-3-33.79-13-7-7-14-19.27-14-38.29,0-15.52,5-29.79,14.27-39.55,8-8.51,19.27-13.52,34.54-13.52h88.88c10.5,0,24.43-2.25,28.38,10.49C207.3,57.47,207,65.21,203.67,70c-2.84,4.15-7.91,6.12-12.8,6.12-9.49,0-19,.12-28.45.12H105.49C89.87,76.23,82.14,98.43,94.77,108Zm116.29,33.8a12.6,12.6,0,0,1-9.15,4h0a31,31,0,0,1-31-31v-3.59h31a14.17,14.17,0,0,1,10.41,4.52C218.55,122.59,217.18,135.4,211.06,141.84Z"/></g></g></svg>
