<svg xmlns="http://www.w3.org/2000/svg" xmlns:xlink="http://www.w3.org/1999/xlink" viewBox="0 0 620.31 620.31"><defs><style>.cls-1{fill:#fff;}.cls-2{fill:url(#linear-gradient);}</style><linearGradient id="linear-gradient" x1="310.15" y1="67.01" x2="310.15" y2="545.79" gradientTransform="translate(0 0)" gradientUnits="userSpaceOnUse"><stop offset="0.01" stop-color="#ff6700"/><stop offset="0.48" stop-color="#ff3044"/><stop offset="0.82" stop-color="#ff0d6f"/><stop offset="1" stop-color="#ff007f"/></linearGradient></defs><g id="Layer_2" data-name="Layer 2"><g id="Layer_1-2" data-name="Layer 1"><circle class="cls-1" cx="310.15" cy="310.15" r="310.15"/><path class="cls-2" d="M515.15,320.46a65.53,65.53,0,0,0-9.18-7.55,25.9,25.9,0,0,1-7.56-35.13c.08-.13.16-.26.23-.39,8.26-13.3,10.09-27,10.09-39,0-13.3-2.29-39-22-57.75-23.84-22.46-61.42-23.37-77.92-23.37H242.46c-34.65,0-79,5.25-114.91,42.55-24.56,25-42.1,63.14-42.1,111,0,58.32,25.87,93.86,43,111.4,34.14,35,71.77,40.76,106.8,40.78H430.36c18.79,0,55.45-1.84,80.66-26.12C522.93,425,534.86,405.71,534.86,375,534.86,348,525.23,330.55,515.15,320.46ZM251.51,335.18c5.3,4,11,5.35,16.89,5.67h50.68c0,34.56-28,60.74-62.58,60.74h-18c-22.36,0-42.1-5.27-59.2-22.8C167,366.5,154.74,345,154.74,311.69c0-27.2,8.77-52.2,25-69.31,14-14.9,33.77-23.68,60.51-23.68H396c18.4,0,42.8-3.94,49.74,18.38,2.95,9.49,2.34,23.06-3.41,31.45-5,7.26-13.85,10.71-22.43,10.71-16.62,0-33.23.22-49.85.22H270.29C242.92,279.46,229.38,318.35,251.51,335.18Zm203.76,59.23a22.06,22.06,0,0,1-16,7h0A54.25,54.25,0,0,1,385,347.14v-6.29h54.25a24.84,24.84,0,0,1,18.24,7.91C468.4,360.67,466,383.13,455.27,394.41Z"/></g></g></svg>
