<?xml version="1.0" encoding="utf-8"?>
<!-- Generator: Adobe Illustrator 27.5.0, SVG Export Plug-In . SVG Version: 6.00 Build 0)  -->
<svg version="1.1" xmlns="http://www.w3.org/2000/svg" xmlns:xlink="http://www.w3.org/1999/xlink" x="0px" y="0px"
	 viewBox="0 0 500 500" style="enable-background:new 0 0 500 500;" xml:space="preserve">
<g id="Background_Complete">
	<g>
		<g>
			<path style="fill:#EAEAEA;" d="M451.738,57.817c0.55-3.998-5.092-7.287-9.332-7.629c-2.022-0.163-4.122,0.146-6.038-0.521
				c-4.15-1.447-5.808-6.808-9.857-8.516c-3.027-1.277-6.513-0.14-9.448,1.337c-2.935,1.477-5.835,3.336-9.115,3.546
				c-2.852,0.182-5.949-0.875-8.445,0.518c-1.859,1.038-2.834,3.181-4.548,4.445c-1.677,1.237-3.864,1.499-5.944,1.612
				c-2.08,0.113-4.234,0.134-6.129,1.001c-1.894,0.867-3.462,2.871-3.069,4.917L451.738,57.817z"/>
		</g>
	</g>
	<g>
		<g>
			<path style="fill:#F5F5F5;" d="M161.306,62.478c0.861-6.255-7.967-11.401-14.601-11.936c-3.163-0.255-6.449,0.229-9.446-0.816
				c-6.493-2.263-9.087-10.652-15.423-13.324c-4.737-1.998-10.19-0.219-14.782,2.092c-4.592,2.311-9.13,5.22-14.26,5.548
				c-4.463,0.286-9.308-1.369-13.213,0.811c-2.909,1.624-4.433,4.977-7.115,6.955c-2.623,1.935-6.045,2.345-9.3,2.522
				c-3.255,0.177-6.625,0.21-9.589,1.567c-2.964,1.357-5.416,4.491-4.801,7.692L161.306,62.478z"/>
		</g>
	</g>
	<g>
		<g>
			<path style="fill:#F5F5F5;" d="M390.974,98.027c0.841-6.109-7.781-11.135-14.259-11.657c-3.089-0.249-6.299,0.223-9.225-0.797
				c-6.341-2.21-8.874-10.403-15.062-13.013c-4.626-1.951-9.952-0.214-14.436,2.043c-4.485,2.257-8.917,5.098-13.927,5.418
				c-4.358,0.279-9.091-1.337-12.904,0.792c-2.841,1.586-4.33,4.86-6.949,6.792c-2.562,1.89-5.904,2.29-9.083,2.463
				c-3.179,0.173-6.47,0.205-9.365,1.531c-2.895,1.325-5.289,4.386-4.689,7.513L390.974,98.027z"/>
		</g>
	</g>
	<g>
		<g>
			<g>
				<g>
					<g>
						<g>
							<path style="fill:#EAEAEA;" d="M379.593,465.391c-21.112-9.739-29.735-33.303-32.918-55.304
								c-0.532-3.672-1.623-7.449-0.462-10.963c1.163-3.514,4.821-6.43,8.365-5.478c2.94,0.789,4.687,3.731,6.672,6.066
								c2.64,3.108,6.162,5.44,10.029,6.64c2.541,0.789,5.549,1.01,7.617-0.667c2.837-2.302,2.427-6.719,1.753-10.346
								c-1.257-6.759-2.513-13.518-3.77-20.276c-0.674-3.626-1.35-7.331-0.84-10.98c0.511-3.648,2.431-7.297,5.711-8.884
								c3.281-1.587,7.909-0.363,9.276,3.06c0.569,1.424,0.543,3.014,0.915,4.502c0.371,1.489,1.373,3.031,2.879,3.194
								c1.526,0.166,2.794-1.125,3.688-2.382c3.09-4.338,4.785-9.517,6.318-14.639c1.534-5.123,2.977-10.345,5.66-14.953
								c2.682-4.608,6.817-8.621,11.963-9.849c5.147-1.227,11.263,0.987,13.493,5.856c2.236,4.882,0.182,10.611-2.324,15.337
								c-3.717,7.012-8.444,13.472-13.986,19.112c-0.999,1.018-2.082,2.118-2.278,3.541c-0.354,2.562,2.371,4.554,4.903,4.921
								c2.868,0.416,5.754-0.392,8.644-0.567c2.891-0.175,6.182,0.523,7.733,3.007c2.153,3.444-0.252,7.89-2.849,10.986
								c-5.199,6.199-11.458,11.482-18.417,15.548c-2.495,1.457-5.152,2.818-6.969,5.081c-1.817,2.264-2.531,5.76-0.771,8.083
								c1.762,2.327,5.248,2.546,7.953,1.524c2.703-1.02,4.935-2.989,7.42-4.473c4.651-2.779,11.156-3.591,15.126,0.147
								c2.609,2.457,3.502,6.371,3.046,9.94c-0.455,3.569-2.087,6.866-3.893,9.961c-6.313,10.817-15.194,20.207-26.048,26.298
								C402.38,464.522,391.85,467.533,379.593,465.391"/>
						</g>
					</g>
				</g>
			</g>
		</g>
		<g>
			<g>
				<g>
					<g>
						<g>
							<g>
								<path style="fill:#E0E0E0;" d="M382.778,450.669c1.238-11.614,3.65-24.232,6.627-37.342c0.756-3.274,1.504-6.51,2.24-9.699
									c0.743-3.181,1.479-6.337,2.389-9.378c1.795-6.093,3.986-11.813,6.235-17.178c2.247-5.368,4.576-10.38,6.786-15.051
									c2.222-4.668,4.375-8.98,6.505-12.825c4.237-7.712,8.383-13.515,11.392-17.383c1.5-1.94,2.713-3.406,3.549-4.389
									c0.403-0.468,0.719-0.835,0.957-1.112c0.219-0.247,0.335-0.37,0.344-0.363c0.01,0.008-0.089,0.146-0.29,0.408
									c-0.225,0.287-0.525,0.669-0.905,1.155c-0.8,1.011-1.979,2.503-3.446,4.465c-2.939,3.913-7.009,9.738-11.18,17.456
									c-2.098,3.85-4.221,8.163-6.417,12.835c-2.188,4.678-4.494,9.691-6.72,15.052c-2.227,5.358-4.396,11.063-6.172,17.124
									c-0.901,3.026-1.628,6.154-2.37,9.344c-0.735,3.187-1.48,6.422-2.236,9.695c-2.974,13.1-5.398,25.684-6.667,37.259"/>
							</g>
						</g>
					</g>
				</g>
			</g>
		</g>
		<g>
			<g>
				<g>
					<g>
						<g>
							<g>
								<path style="fill:#E0E0E0;" d="M394.22,394.189c-0.044,0.015-0.266-0.514-0.633-1.485c-0.371-0.969-0.861-2.388-1.44-4.151
									c-1.162-3.523-2.601-8.442-4.167-13.872c-1.566-5.433-3.071-10.318-4.283-13.813c-0.602-1.749-1.102-3.161-1.461-4.131
									c-0.354-0.974-0.529-1.521-0.486-1.54c0.043-0.018,0.3,0.494,0.73,1.44c0.435,0.942,1.006,2.332,1.666,4.066
									c1.333,3.465,2.917,8.349,4.485,13.786c1.532,5.362,2.916,10.213,3.975,13.919c0.488,1.672,0.902,3.08,1.233,4.21
									C394.125,393.615,394.265,394.173,394.22,394.189z"/>
							</g>
						</g>
					</g>
				</g>
			</g>
		</g>
		<g>
			<g>
				<g>
					<g>
						<g>
							<g>
								<path style="fill:#E0E0E0;" d="M439.331,377.087c0.009,0.046-0.641,0.242-1.822,0.557c-1.179,0.322-2.886,0.778-4.978,1.409
									c-4.192,1.229-9.924,3.129-16.156,5.502c-6.23,2.385-11.775,4.783-15.736,6.634c-1.988,0.911-3.577,1.692-4.678,2.225
									c-1.099,0.538-1.718,0.815-1.741,0.774c-0.022-0.043,0.555-0.399,1.619-1.012c1.066-0.606,2.626-1.455,4.593-2.427
									c3.919-1.968,9.454-4.445,15.702-6.838c6.25-2.379,12.028-4.214,16.267-5.326c2.115-0.573,3.846-0.96,5.048-1.201
									C438.652,377.149,439.32,377.04,439.331,377.087z"/>
							</g>
						</g>
					</g>
				</g>
			</g>
		</g>
		<g>
			<g>
				<g>
					<g>
						<g>
							<g>
								<path style="fill:#E0E0E0;" d="M383.197,449.707c-0.02,0.013-0.164-0.163-0.422-0.512c-0.298-0.418-0.661-0.928-1.101-1.546
									c-0.95-1.346-2.275-3.33-3.879-5.802c-3.212-4.943-7.433-11.911-11.988-19.662c-4.557-7.754-8.708-14.752-11.812-19.755
									c-1.517-2.431-2.766-4.429-3.694-5.915c-0.399-0.646-0.727-1.178-0.996-1.616c-0.221-0.373-0.329-0.575-0.309-0.59
									c0.02-0.012,0.164,0.164,0.423,0.513c0.298,0.418,0.661,0.927,1.101,1.544c0.95,1.346,2.275,3.33,3.879,5.802
									c3.212,4.943,7.433,11.911,11.989,19.665c4.556,7.752,8.707,14.749,11.811,19.752c1.518,2.429,2.766,4.429,3.693,5.914
									c0.399,0.646,0.727,1.18,0.996,1.616C383.11,449.492,383.217,449.694,383.197,449.707z"/>
							</g>
						</g>
					</g>
				</g>
			</g>
		</g>
		<g>
			<g>
				<g>
					<g>
						<g>
							<g>
								<path style="fill:#E0E0E0;" d="M441.636,418.583c0.01,0.022-0.187,0.146-0.57,0.364c-0.456,0.25-1.015,0.556-1.693,0.927
									c-1.567,0.838-3.682,1.969-6.256,3.345c-5.282,2.826-12.532,6.811-20.537,11.227c-8.007,4.418-15.301,8.341-20.643,11.057
									c-2.67,1.359-4.842,2.437-6.358,3.151c-0.702,0.325-1.28,0.593-1.75,0.812c-0.404,0.179-0.621,0.262-0.631,0.24
									c-0.01-0.021,0.187-0.146,0.57-0.365c0.455-0.248,1.014-0.554,1.693-0.926c1.567-0.838,3.681-1.968,6.255-3.344
									c5.282-2.825,12.533-6.812,20.54-11.228c8.005-4.416,15.298-8.339,20.64-11.055c2.67-1.36,4.842-2.437,6.359-3.152
									c0.702-0.325,1.279-0.594,1.751-0.812C441.408,418.645,441.624,418.562,441.636,418.583z"/>
							</g>
						</g>
					</g>
				</g>
			</g>
		</g>
	</g>
	<g>
		<polygon style="fill:#EAEAEA;" points="472.76,214.4 453.57,198.634 453.464,207.157 399.928,206.493 399.755,220.495 
			453.29,221.16 453.188,229.379 		"/>
	</g>
	<g>
		<polygon style="fill:#EAEAEA;" points="444.231,237.075 431.841,226.897 431.772,232.4 397.208,231.97 397.096,241.011 
			431.66,241.44 431.594,246.746 		"/>
	</g>
	<g>
		<g>
			<g>
				<path style="fill:#EAEAEA;" d="M37.113,110.055c0,0-11.159,3.47-0.624,27.425c10.535,23.955,18.099,35.95,18.099,35.95
					s1.795,5.524-2.801,6.101c-4.596,0.578-14.519-1.595-16.865,3.854c-2.433,5.651,1.446,11.337,9.672,16.602
					c8.226,5.265,25.825,17.462,27.411,18.571c1.558,1.089,3.034,3.696-0.034,4.591c-3.068,0.896-25.728,1.951-24.584,12.673
					c1.145,10.722,26.471,21.625,29.216,22.87c2.746,1.245,3.349,2.474,3.031,4.002c-0.317,1.528-7.968,1.165-14.4,1.729
					c-6.433,0.564-13.793,2.346-12.614,8.477c1.179,6.131,15.771,19.709,52.767,25.495l17.318,1.559l10.285-14.116
					c20.17-31.55,19.663-51.475,15.851-56.419c-3.813-4.944-10.023-0.61-14.706,3.835s-9.479,10.417-10.833,9.643
					c-1.355-0.774-1.877-2.04-0.99-4.922c0.886-2.882,9.492-29.077,2.217-37.037c-7.275-7.96-23.075,8.318-25.778,10.023
					c-2.703,1.705-3.679-1.127-3.462-3.016c0.221-1.923,2.739-23.187,4.243-32.837c1.504-9.65-0.187-16.323-6.032-18.242
					c-5.636-1.851-10.581,7.022-14.058,10.082c-3.477,3.06-6.426-1.943-6.426-1.943s-3.977-13.611-14.945-37.371
					c-10.969-23.76-21.18-17.495-21.18-17.495"/>
			</g>
		</g>
		<g>
			<g>
				<g>
					<path style="fill:#E0E0E0;" d="M123.371,304.089c-7.987-17.481-21.66-48.79-33.54-75.609
						c-11.875-26.81-22.649-51.073-30.547-68.593c-3.951-8.741-7.151-15.821-9.374-20.739c-1.098-2.433-1.954-4.33-2.545-5.641
						c-0.279-0.632-0.494-1.121-0.65-1.473c-0.143-0.333-0.204-0.509-0.204-0.509s0.094,0.161,0.255,0.486
						c0.167,0.346,0.399,0.828,0.698,1.45c0.613,1.301,1.5,3.184,2.637,5.599c2.285,4.865,5.541,11.927,9.531,20.669
						c7.987,17.481,18.817,41.722,30.692,68.532c11.879,26.819,25.497,58.15,33.394,75.67"/>
				</g>
			</g>
		</g>
		<g>
			<g>
				<g>
					<path style="fill:#E0E0E0;" d="M48.681,186.984c0.015-0.034,0.438,0.112,1.191,0.407c0.755,0.291,1.832,0.744,3.159,1.316
						c2.651,1.149,6.272,2.83,10.234,4.757c3.901,1.914,7.427,3.645,10.125,4.97c1.22,0.589,2.249,1.086,3.076,1.486
						c0.728,0.348,1.124,0.556,1.11,0.591c-0.014,0.034-0.438-0.109-1.194-0.398c-0.754-0.294-1.832-0.746-3.153-1.333
						c-2.64-1.176-6.238-2.903-10.2-4.83c-3.912-1.885-7.45-3.59-10.157-4.895c-1.223-0.583-2.255-1.075-3.085-1.471
						C49.061,187.23,48.666,187.018,48.681,186.984z"/>
				</g>
			</g>
		</g>
		<g>
			<g>
				<g>
					<path style="fill:#E0E0E0;" d="M78.826,199.468c-0.137-0.059,2.999-7.677,7.004-17.013c4.006-9.339,7.364-16.86,7.501-16.802
						c0.137,0.059-2.998,7.675-7.005,17.015C82.321,192.004,78.963,199.527,78.826,199.468z"/>
				</g>
			</g>
		</g>
		<g>
			<g>
				<g>
					<path style="fill:#E0E0E0;" d="M95.208,241.469c-0.028-0.025,0.247-0.391,0.766-1.031c0.594-0.722,1.336-1.624,2.217-2.694
						c1.868-2.277,4.436-5.433,7.14-9.018c2.714-3.581,5.057-6.906,6.734-9.328c0.791-1.139,1.456-2.098,1.99-2.867
						c0.474-0.675,0.751-1.039,0.782-1.019c0.032,0.02-0.185,0.422-0.605,1.133c-0.42,0.71-1.047,1.727-1.849,2.965
						c-1.598,2.48-3.899,5.85-6.621,9.441c-2.713,3.596-5.334,6.723-7.28,8.94c-0.978,1.105-1.779,1.99-2.351,2.585
						C95.563,241.175,95.236,241.493,95.208,241.469z"/>
				</g>
			</g>
		</g>
		<g>
			<g>
				<g>
					<path style="fill:#E0E0E0;" d="M65.457,236.178c0.006-0.037,0.427-0.003,1.184,0.088c0.869,0.12,1.937,0.266,3.197,0.439
						c2.695,0.394,6.412,0.976,10.513,1.651c4.101,0.675,7.809,1.316,10.489,1.807c1.249,0.24,2.307,0.443,3.169,0.609
						c0.746,0.156,1.156,0.259,1.15,0.296c-0.006,0.037-0.427,0.003-1.184-0.089c-0.869-0.119-1.937-0.266-3.196-0.439
						c-2.695-0.394-6.413-0.976-10.514-1.651c-4.1-0.675-7.808-1.316-10.487-1.807c-1.248-0.24-2.307-0.443-3.169-0.609
						C65.86,236.318,65.451,236.214,65.457,236.178z"/>
				</g>
			</g>
		</g>
		<g>
			<g>
				<g>
					<path style="fill:#E0E0E0;" d="M75.208,275.094c0.006-0.037,0.545,0.011,1.514,0.128c1.068,0.143,2.445,0.327,4.098,0.548
						c3.457,0.486,8.227,1.194,13.49,2.009c5.265,0.815,10.026,1.583,13.468,2.166c1.643,0.29,3.011,0.531,4.072,0.718
						c0.96,0.181,1.487,0.299,1.482,0.336c-0.006,0.037-0.544-0.011-1.514-0.128c-1.068-0.143-2.445-0.327-4.098-0.548
						c-3.457-0.486-8.228-1.194-13.493-2.01c-5.263-0.815-10.024-1.583-13.466-2.165c-1.642-0.289-3.011-0.53-4.072-0.717
						C75.73,275.248,75.203,275.131,75.208,275.094z"/>
				</g>
			</g>
		</g>
		<g>
			<g>
				<g>
					<path style="fill:#E0E0E0;" d="M112.461,280.6c-0.029-0.023,0.307-0.496,0.938-1.33c0.693-0.907,1.598-2.091,2.688-3.517
						c2.266-2.972,5.381-7.089,8.69-11.731c3.318-4.638,6.209-8.915,8.281-12.026c0.996-1.493,1.823-2.733,2.457-3.683
						c0.584-0.868,0.922-1.338,0.953-1.318c0.032,0.02-0.246,0.528-0.775,1.431c-0.529,0.902-1.316,2.196-2.314,3.778
						c-1.992,3.167-4.839,7.486-8.162,12.132c-3.315,4.65-6.483,8.738-8.829,11.652c-1.177,1.454-2.141,2.622-2.825,3.414
						C112.881,280.196,112.49,280.624,112.461,280.6z"/>
				</g>
			</g>
		</g>
	</g>
</g>
<g id="Background_Simple" style="display:none;">
	<path style="display:inline;fill:#E0E0E0;" d="M454.96,211.421c-0.687-26.329-2.467-55.081-14.76-78.374
		c-12.293-23.293-37.923-48.323-63.097-56.067c-18.905-5.816-35.437-3.25-55.728,2.082c-19.252,5.058-31.026,17.793-43.227,34.333
		c-10.746,14.566-18.772,30.886-24.597,48.025c-8.53,25.095-30.517,45.036-56.222,51.326c-32.576,7.971-68.116-5.004-99.913,5.658
		c-35.473,11.896-56.323,52.653-51.837,89.797c0.112,0.929,0.235,1.86,0.368,2.795c7.818,54.935,54.841,95.831,110.31,97.319
		l43.476,1.166c58.15,4.523,121.2-0.392,171.328-30.21c28.214-16.783,50.099-43.267,63.587-73.197
		C448.135,276.146,455.815,244.238,454.96,211.421z"/>
</g>
<g id="Plant">
	<g>
		<g>
			<g>
				<g>
					<path style="fill:#E8505B;" d="M371.479,423.948c2.031,0.807,3.563,2.614,4.366,4.646c0.803,2.033,0.94,4.276,0.762,6.454
						c-0.345,4.214-2.6,8.528-5.065,11.964c-3.633-2.976-4.614-8.335-4.941-11.085C366.084,431.581,367.789,423.413,371.479,423.948
						"/>
				</g>
			</g>
		</g>
		<g>
			<g>
				<g>
					<path style="fill:#E8505B;" d="M375.868,453.816c-0.64-2.356,0.267-4.991,2.038-6.671c1.771-1.68,4.296-2.446,6.735-2.336
						c1.128,0.051,2.354,0.341,3.027,1.248c0.629,0.847,0.599,2.058,0.14,3.008c-0.46,0.95-1.284,1.675-2.16,2.264
						C382.643,453.347,379.365,454.749,375.868,453.816"/>
				</g>
			</g>
		</g>
		<g>
			<g>
				<g>
					<g>
						<path style="fill:#263238;" d="M371.733,466.835c-0.022-0.004,0.018-0.312,0.099-0.866c0.092-0.61,0.212-1.398,0.355-2.346
							c0.33-1.961,0.745-4.769,2.175-7.526c1.41-2.75,3.44-4.806,5.17-5.848c0.859-0.533,1.615-0.858,2.15-1.032
							c0.264-0.098,0.481-0.139,0.623-0.179c0.144-0.035,0.22-0.048,0.223-0.038c0.027,0.068-1.216,0.332-2.879,1.432
							c-1.669,1.07-3.628,3.104-5.016,5.807c-1.402,2.7-1.85,5.47-2.234,7.422c-0.184,0.984-0.333,1.781-0.451,2.329
							C371.832,466.538,371.753,466.839,371.733,466.835z"/>
					</g>
				</g>
			</g>
		</g>
		<g>
			<g>
				<g>
					<g>
						<path style="fill:#263238;" d="M370.729,430.283c0.01-0.001,0.029,0.129,0.055,0.375c0.025,0.279,0.058,0.637,0.098,1.08
							c0.08,0.939,0.177,2.298,0.284,3.979c0.214,3.362,0.444,8.01,0.582,13.149c0.137,5.14,0.156,9.795,0.122,13.163
							c-0.016,1.684-0.041,3.047-0.07,3.988c-0.016,0.445-0.03,0.804-0.04,1.084c-0.012,0.248-0.024,0.378-0.035,0.378
							c-0.01,0-0.02-0.13-0.027-0.378c-0.005-0.28-0.01-0.64-0.018-1.085c-0.007-0.98-0.016-2.333-0.027-3.988
							c-0.022-3.367-0.075-8.018-0.212-13.155c-0.138-5.135-0.334-9.782-0.492-13.145c-0.077-1.653-0.141-3.004-0.186-3.983
							c-0.017-0.445-0.03-0.804-0.04-1.084C370.717,430.415,370.719,430.284,370.729,430.283z"/>
					</g>
				</g>
			</g>
		</g>
		<g>
			<g>
				<g>
					<path style="fill:#E8505B;" d="M369.829,456.563c-0.963-5.057-4.53-9.544-9.239-11.622c-1.199-0.529-2.754-0.851-3.698,0.058
						c-0.946,0.911-0.678,2.484-0.164,3.692c2.139,5.027,7.571,8.454,13.029,8.219"/>
				</g>
			</g>
		</g>
		<g>
			<g>
				<g>
					<g>
						<path style="fill:#263238;" d="M361.286,448.907c0.009-0.019,0.278,0.09,0.761,0.304c0.242,0.105,0.538,0.236,0.862,0.426
							c0.324,0.189,0.714,0.37,1.101,0.643c0.394,0.261,0.834,0.537,1.264,0.891c0.45,0.329,0.891,0.729,1.352,1.153
							c0.899,0.871,1.81,1.915,2.597,3.131c0.777,1.223,1.351,2.486,1.761,3.669c0.187,0.598,0.367,1.166,0.469,1.715
							c0.137,0.541,0.197,1.057,0.26,1.525c0.08,0.467,0.071,0.898,0.098,1.272c0.029,0.374,0.015,0.698,0.001,0.961
							c-0.022,0.528-0.044,0.818-0.066,0.816c-0.069,0,0.015-1.17-0.249-3.02c-0.076-0.461-0.147-0.967-0.293-1.497
							c-0.111-0.538-0.298-1.094-0.489-1.68c-0.419-1.158-0.99-2.393-1.752-3.595c-0.774-1.194-1.662-2.225-2.536-3.094
							c-0.448-0.423-0.876-0.825-1.313-1.157c-0.417-0.358-0.844-0.641-1.226-0.91C362.337,449.419,361.257,448.967,361.286,448.907
							z"/>
					</g>
				</g>
			</g>
		</g>
	</g>
	<g>
		<g>
			<g>
				<g>
					<g>
						<path style="fill:#E8505B;" d="M71.447,442.038c0.923-3.577-1.422-7.168-4.051-9.763c-2.629-2.595-5.772-4.92-7.14-8.351
							c-2.216-5.559,0.763-12.757-3.018-17.395c-2.224-2.729-6.213-3.641-8.187-6.556c-1.035-1.529-1.37-3.408-1.777-5.209
							c-2.076-9.187-6.674-17.792-13.159-24.623c-0.451,8.181,1.354,16.476,5.163,23.73c1.531,2.916,3.412,5.759,3.919,9.013
							c0.824,5.285-2.126,10.729-0.827,15.918c1.485,5.934,8.151,9.906,8.467,16.015c0.267,5.165-4.234,9.698-3.899,14.858
							c0.143,2.197,1.163,4.238,2.298,6.124c3.993,6.639,9.859,11.211,18.751,11.062l10.891,0.381L71.447,442.038z"/>
					</g>
				</g>
			</g>
		</g>
		<g style="opacity:0.3;">
			<g>
				<g>
					<g>
						<g>
							<path d="M71.447,442.038c0.923-3.577-1.422-7.168-4.051-9.763c-2.629-2.595-5.772-4.92-7.14-8.351
								c-2.216-5.559,0.763-12.757-3.018-17.395c-2.224-2.729-6.213-3.641-8.187-6.556c-1.035-1.529-1.37-3.408-1.777-5.209
								c-2.076-9.187-6.674-17.792-13.159-24.623c-0.451,8.181,1.354,16.476,5.163,23.73c1.531,2.916,3.412,5.759,3.919,9.013
								c0.824,5.285-2.126,10.729-0.827,15.918c1.485,5.934,8.151,9.906,8.467,16.015c0.267,5.165-4.234,9.698-3.899,14.858
								c0.143,2.197,1.163,4.238,2.298,6.124c3.993,6.639,9.859,11.211,18.751,11.062l10.891,0.381L71.447,442.038z"/>
						</g>
					</g>
				</g>
			</g>
		</g>
		<g>
			<g>
				<g>
					<g>
						<g>
							<g>
								<g>
									<path style="fill:#263238;" d="M81.082,467.53c0,0,1.038,0.242,2.999-0.065c0.976-0.143,2.177-0.401,3.539-0.891
										c1.354-0.495,2.895-1.201,4.371-2.394c0.709-0.62,1.417-1.383,1.798-2.396c0.375-1.008,0.443-2.117,0.513-3.254
										c0.058-1.138,0.059-2.324,0.254-3.523c0.184-1.199,0.655-2.378,1.331-3.502c1.284-2.256,3.416-4.391,4.105-7.454
										c0.745-3.013,0.211-6.272-0.296-9.546c-0.506-3.266-0.995-6.828,0.254-10.231c1.168-3.406,3.557-6.481,4.751-10.321
										c1.189-3.878,0.635-8.049,0.886-12.163c0.115-2.067,0.514-4.133,1.419-6.047c0.881-1.928,2.103-3.746,3.058-5.775
										c1.933-4.103,2.274-8.753,2.803-13.31c0.258-2.296,0.518-4.616,0.781-6.959c0.26-2.354,0.468-4.699,1.21-6.965
										c0.671-2.282,1.643-4.491,2.605-6.74c0.471-1.131,0.97-2.264,1.264-3.52c0.213-1.284,0.275-2.485,0.351-3.746
										c0.122-2.497,0.019-5.028-0.29-7.539c-0.296-2.514-0.749-5.005-1.02-7.524c-0.017-0.149-0.034-0.297-0.049-0.434
										l-0.056-0.502l-0.446,0.223c-2.332,1.168-4.329,2.908-5.863,4.948c-1.56,2.027-2.695,4.313-3.602,6.638
										c-1.819,4.679-2.474,9.583-3.391,14.262c-0.895,4.679-2.076,9.282-4.475,13.171c-1.193,1.939-2.637,3.71-3.901,5.602
										c-1.26,1.879-2.37,3.942-2.702,6.207c-0.644,4.607,1.894,8.653,1.365,12.733c-0.188,2.027-0.995,3.922-1.987,5.652
										c-0.989,1.74-2.151,3.353-3.254,4.976c-1.102,1.622-2.151,3.267-2.924,5.025c-0.786,1.752-1.219,3.626-1.338,5.46
										c-0.266,3.673,0.256,7.157-0.013,10.446c-0.221,3.295-1.378,6.281-2.688,8.951c-1.318,2.68-2.783,5.102-4.011,7.452
										c-0.618,1.173-1.187,2.32-1.651,3.471c-0.491,1.148-0.733,2.325-0.956,3.443c-0.357,2.258-0.323,4.362-0.08,6.216
										c0.474,3.731,1.865,6.417,3.116,7.927c0.287,0.403,0.619,0.688,0.881,0.954c0.255,0.275,0.508,0.461,0.715,0.607
										C80.865,467.393,81.082,467.53,81.082,467.53c0.048-0.055-0.896-0.555-2.109-2.085c-1.199-1.518-2.53-4.185-2.956-7.874
										c-0.219-1.833-0.232-3.91,0.139-6.126c0.229-1.096,0.476-2.249,0.963-3.362c0.463-1.124,1.039-2.264,1.661-3.425
										c1.237-2.329,2.718-4.742,4.064-7.438c1.336-2.683,2.538-5.729,2.782-9.108c0.286-3.359-0.22-6.855,0.058-10.442
										c0.125-1.794,0.547-3.581,1.313-5.276c0.754-1.702,1.789-3.315,2.89-4.924c1.102-1.611,2.278-3.231,3.295-5.007
										c1.018-1.764,1.872-3.737,2.078-5.883c0.525-4.346-1.994-8.419-1.34-12.701c0.314-2.119,1.368-4.092,2.611-5.937
										c1.243-1.857,2.695-3.629,3.924-5.618c2.475-4.001,3.674-8.693,4.579-13.391c0.926-4.708,1.582-9.56,3.368-14.143
										c0.889-2.278,2-4.507,3.508-6.464c1.483-1.972,3.394-3.629,5.616-4.744l-0.502-0.278c0.015,0.138,0.032,0.289,0.049,0.439
										c0.274,2.548,0.729,5.045,1.021,7.529c0.306,2.483,0.408,4.964,0.289,7.424c-0.071,1.214-0.145,2.488-0.335,3.633
										c-0.266,1.145-0.754,2.275-1.222,3.395c-0.956,2.24-1.941,4.482-2.625,6.814c-0.757,2.32-0.974,4.754-1.226,7.08
										c-0.26,2.344-0.518,4.667-0.772,6.964c-0.52,4.577-0.862,9.152-2.723,13.112c-0.92,1.972-2.14,3.795-3.047,5.786
										c-0.936,1.987-1.351,4.17-1.46,6.271c-0.237,4.203,0.309,8.311-0.827,12.034c-1.129,3.706-3.505,6.797-4.705,10.311
										c-1.285,3.551-0.753,7.228-0.233,10.485c0.526,3.279,1.054,6.47,0.352,9.366c-0.63,2.925-2.7,5.041-4.011,7.361
										c-0.682,1.151-1.171,2.398-1.351,3.642c-0.191,1.24-0.181,2.436-0.229,3.565c-0.057,1.122-0.121,2.222-0.465,3.165
										c-0.342,0.941-1.008,1.684-1.689,2.292c-1.422,1.176-2.935,1.897-4.266,2.406c-1.339,0.504-2.525,0.783-3.489,0.947
										c-0.965,0.175-1.714,0.2-2.215,0.214C81.342,467.522,81.082,467.53,81.082,467.53z"/>
								</g>
							</g>
						</g>
					</g>
				</g>
				<g>
					<g>
						<g>
							<g>
								<g>
									<path style="fill:#263238;" d="M115.493,339.229c-0.012-0.003-0.047,0.109-0.105,0.329
										c-0.064,0.261-0.143,0.583-0.24,0.981c-0.214,0.858-0.47,2.153-0.881,3.771c-0.428,1.613-1.416,3.438-2.261,5.688
										c-0.878,2.232-1.769,4.819-2.589,7.725c-0.831,2.904-1.567,6.13-2.337,9.585c-0.794,3.449-1.586,7.148-3.486,10.636
										c-0.893,1.769-1.898,3.56-2.696,5.518c-0.818,1.959-1.26,4.1-1.568,6.249c-0.523,4.314-1.315,8.695-2.348,13.176
										c-2.184,8.925-4.264,17.425-6.158,25.165c-1.94,7.714-3.688,14.665-5.161,20.524c-1.434,5.806-2.599,10.524-3.421,13.852
										c-0.379,1.597-0.678,2.858-0.896,3.775c-0.087,0.4-0.158,0.724-0.216,0.986c-0.045,0.223-0.062,0.339-0.05,0.342
										c0.012,0.003,0.052-0.107,0.119-0.324c0.075-0.258,0.168-0.576,0.283-0.969c0.248-0.909,0.59-2.159,1.023-3.742
										c0.873-3.314,2.112-8.013,3.636-13.797c1.515-5.849,3.312-12.787,5.306-20.487c1.912-7.742,4.011-16.245,6.216-25.172
										c1.033-4.476,1.833-8.937,2.343-13.23c0.303-2.135,0.724-4.198,1.509-6.098c0.77-1.909,1.759-3.69,2.652-5.478
										c1.916-3.554,2.714-7.365,3.477-10.8c0.745-3.464,1.451-6.68,2.247-9.578c0.785-2.9,1.638-5.483,2.477-7.717
										c0.801-2.242,1.757-4.09,2.158-5.757c0.377-1.658,0.585-2.939,0.756-3.813c0.07-0.403,0.127-0.73,0.172-0.995
										C115.493,339.348,115.505,339.231,115.493,339.229z"/>
								</g>
							</g>
						</g>
					</g>
				</g>
			</g>
			<g>
				<g>
					<g>
						<g>
							<g>
								<path style="fill:#E8505B;" d="M83.004,467.564c7.113-4.228,9.155-17.063,6.188-24.788
									c-2.967-7.725-8.161-14.783-8.962-23.02c-0.616-6.331,1.458-12.83-0.017-19.018c-1.99-8.352-10.144-14.82-10.05-23.405
									c0.053-4.817,2.793-9.349,2.575-14.161c-0.268-5.902-4.798-10.585-7.604-15.785c-4.295-7.959-4.577-17.369-6.046-26.292
									c-1.468-8.924-4.869-18.48-12.778-22.867c-1.168,7.576-3.162,12.765-2.536,23.029c0.225,3.686,4.507,10.742,5.089,18.82
									c0.348,4.828,0.59,9.664,0.884,14.496c0.287,4.702,0.592,9.49,2.277,13.889c1.291,3.371,3.367,6.433,4.326,9.914
									c1.804,6.548-0.566,13.639,0.891,20.273c1.234,5.62,5.124,10.457,5.919,16.156c1.117,8.007-4.066,16.327-1.413,23.964
									c1.316,3.79,4.434,6.833,5.319,10.747c0.687,3.036-0.062,6.251,0.56,9.301c1.001,4.914,10.375,8.731,15.381,8.427"/>
							</g>
						</g>
					</g>
				</g>
				<g>
					<g>
						<g>
							<g>
								<g>
									<path style="fill:#263238;" d="M48.271,305.75c-0.012,0.002-0.001,0.147,0.031,0.428c0.041,0.318,0.094,0.729,0.16,1.245
										c0.163,1.094,0.347,2.701,0.716,4.778c0.398,2.09,1.474,4.441,2.334,7.277c0.908,2.827,1.81,6.089,2.609,9.741
										c0.812,3.65,1.491,7.689,2.204,12.037c0.737,4.315,1.49,9.085,3.646,13.61c0.998,2.274,2.117,4.55,2.957,6.975
										c0.861,2.416,1.257,5.015,1.501,7.687c0.367,5.366,1.082,10.947,2.086,16.571c2.179,11.225,4.254,21.917,6.143,31.65
										c1.991,9.694,3.785,18.427,5.295,25.779c1.525,7.298,2.762,13.22,3.629,17.367c0.436,2.012,0.778,3.591,1.021,4.715
										c0.117,0.507,0.211,0.91,0.283,1.223c0.067,0.275,0.108,0.414,0.12,0.412c0.012-0.002-0.005-0.147-0.05-0.426
										c-0.055-0.316-0.126-0.724-0.215-1.236c-0.213-1.13-0.512-2.718-0.893-4.741c-0.815-4.158-1.978-10.094-3.411-17.412
										c-1.468-7.361-3.212-16.104-5.148-25.809c-1.871-9.729-3.927-20.418-6.085-31.64c-1.004-5.629-1.714-11.129-2.093-16.517
										c-0.248-2.687-0.661-5.364-1.551-7.841c-0.866-2.476-2.001-4.761-2.999-7.017c-2.144-4.459-2.897-9.116-3.664-13.447
										c-0.737-4.34-1.447-8.391-2.293-12.048c-0.833-3.66-1.773-6.927-2.72-9.754c-0.904-2.846-2.013-5.177-2.44-7.213
										c-0.405-2.04-0.636-3.662-0.843-4.743c-0.095-0.512-0.17-0.919-0.229-1.234C48.317,305.889,48.282,305.748,48.271,305.75z"
										/>
								</g>
							</g>
						</g>
					</g>
				</g>
			</g>
		</g>
	</g>
</g>
<g id="Device">
	<g>
		<g>
			<g>
				<g>
					<g>
						<g>
							<g>
								<g>
									<g>
										<g>
											<g>
												<g>
													<g>
														<path style="fill:#263238;" d="M268.997,467.234l-139.171,0c-16.815-0.077-31.027-14.415-30.956-31.231l1.481-350.514
															c0.071-16.825,13.771-30.405,30.596-30.327l139.813,0.646c16.815,0.078,30.386,13.769,30.315,30.584l-1.482,350.515
															C299.522,453.732,285.822,467.312,268.997,467.234z"/>
													</g>
												</g>
											</g>
										</g>
									</g>
								</g>
							</g>
						</g>
					</g>
				</g>
			</g>
			<g>
				<g>
					<g>
						<g>
							<g>
								<path style="fill:#F5F5F5;" d="M270.867,69.127l-27.107-0.125c-3.635-0.016-6.596,3.051-6.611,6.851l-0.022,4.917
									c-0.015,3.8-2.976,6.868-6.611,6.851l-52.838-0.244c-3.635-0.016-6.569-3.111-6.553-6.912l0.021-4.917
									c0.016-3.8-2.919-6.895-6.554-6.911l-9.534-0.044l-23.725-0.109c-11.783-0.054-21.378,9.456-21.428,21.24l-1.446,342.127
									c-0.05,11.778,9.454,21.366,21.231,21.421l139.534,0.644c11.782,0.055,21.377-9.455,21.427-21.239l1.446-342.128
									C292.147,78.77,282.644,69.182,270.867,69.127z"/>
							</g>
						</g>
					</g>
				</g>
				<g>
					<g>
						<path style="fill:#F5F5F5;" d="M211.648,389.262c-0.16,4.131-0.311,8.006-0.437,11.226h20.043l-2.454-12.311L211.648,389.262z
							"/>
					</g>
					<g>
						<path style="fill:#F5F5F5;" d="M130.189,394.414l0.175,6.074h78.846c0.133-3.411,0.281-7.196,0.432-11.099L130.189,394.414z"
							/>
					</g>
					<g>
						<polygon style="fill:#F5F5F5;" points="229.808,388.113 232.274,400.488 269.226,400.488 268.78,385.648 						"/>
					</g>
					<g>
						<polygon style="fill:#F5F5F5;" points="213.649,215.12 220.637,174.61 202.336,173.255 202.336,215.12 						"/>
					</g>
					<g>
						<polygon style="fill:#F5F5F5;" points="128.541,371.924 108.68,379.705 108.621,393.774 129.133,392.477 						"/>
					</g>
					<g>
						<polygon style="fill:#F5F5F5;" points="128.45,368.76 127.365,331.03 127.35,331.031 127.35,317.725 108.934,319.676 
							108.694,376.478 128.443,368.741 						"/>
					</g>
					<g>
						<polygon style="fill:#F5F5F5;" points="127.35,288.02 109.078,285.608 108.947,316.658 127.35,314.709 						"/>
					</g>
					<g>
						<polygon style="fill:#F5F5F5;" points="263.535,318.286 262.766,329.099 241.187,331.426 242.857,339.982 267.354,338.135 
							266.986,325.866 268.94,317.741 						"/>
					</g>
					<g>
						<polygon style="fill:#F5F5F5;" points="224.642,341.354 241.853,340.057 238.104,320.852 223.083,322.368 						"/>
					</g>
					<g>
						<polygon style="fill:#F5F5F5;" points="224.806,343.348 226.121,359.362 228.455,381.326 229.413,386.134 268.72,383.647 
							267.414,340.136 						"/>
					</g>
					<g>
						<path style="fill:#F5F5F5;" d="M157.153,267.744l1.512,2.592l-30.315,17.682v41.941l31.994-2.264l61.662-6.223l-2.257-27.493
							l-58.908-7.695l0.389-2.975l58.268,7.612l-3.821-46.53l-57.672,5.545l-0.191-1.991l57.7-5.548l-1.993-24.277h-55.476
							l-48.718,8.866l-0.235,55.597l18.446,2.434L157.153,267.744z M131.454,325.956c0,0,0.229-34.585,0-35.876l24.736-13.159
							l3.207,47.267L131.454,325.956z"/>
					</g>
					<g>
						<polygon style="fill:#F5F5F5;" points="261.515,318.49 239.103,320.752 240.802,329.456 260.89,327.29 						"/>
					</g>
					<g>
						<path style="fill:#F5F5F5;" d="M211.933,381.852c-0.069,1.815-0.139,3.625-0.207,5.4l16.681-1.055l-0.858-4.303
							L211.933,381.852z"/>
					</g>
					<g>
						<polygon style="fill:#F5F5F5;" points="176.002,215.12 178.944,201.798 201.336,201.798 201.336,173.18 131.312,167.993 
							131.312,194.864 109.441,199.811 109.339,223.935 157.773,215.12 						"/>
					</g>
					<g>
						<path style="fill:#F5F5F5;" d="M222.727,135.492l-0.597-2.452l26.74-10.582l-17.393-34.914
							c-0.314,0.047-0.633,0.078-0.96,0.077l-29.55-0.137l0.804,48.864L222.727,135.492z"/>
					</g>
					<g>
						<path style="fill:#F5F5F5;" d="M263.252,116.767l-0.031-47.675l-19.46-0.09c-3.635-0.016-6.596,3.051-6.611,6.851
							l-0.022,4.917c-0.009,2.345-1.142,4.409-2.861,5.643l17.404,34.937L263.252,116.767z"/>
					</g>
					<g>
						<path style="fill:#F5F5F5;" d="M162.729,118.812l-2.255-50.195l-5.416-0.025l-21.15-0.098l-9.01,44.887L162.729,118.812z
							 M157.909,73.704l0.721,40.878l-28.112-4.114l6.156-36.764L157.909,73.704z"/>
					</g>
					<g>
						<path style="fill:#F5F5F5;" d="M163.75,118.959l0.005,0.428c0.048,3.917,0.129,10.967,0.187,18.507l36.828-1.505l-0.805-48.91
							l-22.288-0.103c-3.635-0.016-6.569-3.111-6.553-6.911l0.021-4.917c0.016-3.8-2.919-6.895-6.554-6.911l-3.117-0.014
							l2.261,50.335L163.75,118.959z"/>
					</g>
					<g>
						<path style="fill:#F5F5F5;" d="M121.925,112.954l8.922-44.449c-11.557,0.208-20.892,9.598-20.941,21.217l-0.094,22.159
							l0.094-0.652L121.925,112.954z"/>
					</g>
					<g>
						<polygon style="fill:#F5F5F5;" points="128.312,167.771 109.582,166.384 109.454,196.732 128.312,192.467 						"/>
					</g>
					<g>
						<polygon style="fill:#F5F5F5;" points="121.728,113.937 109.811,112.226 109.603,161.372 112.169,161.562 						"/>
					</g>
					<g>
						<polygon style="fill:#F5F5F5;" points="159.56,368.187 159.875,328.73 128.363,330.959 129.476,369.614 						"/>
					</g>
					<g>
						<path style="fill:#F5F5F5;" d="M165.356,359.081l44.628,21.379c0.531-13.971,1.007-27.035,0.962-27.867l0.967-0.052
							l0.473-0.942c0.634,0.317,0.634,0.317,0.302,9.841c-0.185,5.314-0.45,12.384-0.719,19.458h15.434l-2.278-21.441l-3.037-36.987
							l-58.308,5.884L165.356,359.081z"/>
					</g>
					<g>
						<polygon style="fill:#F5F5F5;" points="274.747,293.598 274.243,288.396 220.75,293.96 223.001,321.372 269.188,316.711 
													"/>
					</g>
					<g>
						<polygon style="fill:#F5F5F5;" points="201.336,204.798 181.354,204.798 179.075,215.12 201.336,215.12 						"/>
					</g>
					<g>
						<path style="fill:#F5F5F5;" d="M266.486,208.282l-50.045-3.462l-2.04,11.824l2.107,25.659l52.78-5.075L266.486,208.282z
							 M218.281,216.621l2.686-7.461l43.468,2.749l2.516,21.346l-47.198,5.597L218.281,216.621z"/>
					</g>
					<g>
						<polygon style="fill:#F5F5F5;" points="271.679,261.914 269.481,239.218 216.672,244.296 218.655,268.448 						"/>
					</g>
					<g>
						<polygon style="fill:#F5F5F5;" points="129.19,394.477 108.702,395.773 108.618,394.44 108.592,400.488 129.363,400.488 
													"/>
					</g>
					<g>
						<path style="fill:#F5F5F5;" d="M291.73,105.496l0.302,0.762l0.066-15.712c0.049-11.777-9.454-21.365-21.231-21.419
							l-6.647-0.031l0.031,47.275L291.73,105.496z"/>
					</g>
					<g>
						<path style="fill:#F5F5F5;" d="M209.943,381.549l-45.554-21.823l-1.605-31.272l-1.908,0.193l-0.323,40.494l-31.048,1.473
							l0.026,0.903l0.007,0.018l-0.006,0.003l0.601,20.877l79.587-5.034C209.794,385.444,209.868,383.491,209.943,381.549z
							 M131.454,373.188l43.457-3.05l28.273,13.117l-71.73,3.882V373.188z"/>
					</g>
					<g>
						<path style="fill:#F5F5F5;" d="M278.783,158.002l1.863-11.054c-16.335-5.829-17.466-22.864-17.418-28.021l-10.664,4.22
							l16.055,32.229L278.783,158.002z"/>
					</g>
					<g>
						<polygon style="fill:#F5F5F5;" points="220.505,290.97 242.714,288.659 238.337,269.044 218.901,271.439 						"/>
					</g>
					<g>
						<polygon style="fill:#F5F5F5;" points="266.565,174.946 225.082,174.939 221.639,174.684 216.954,201.848 266.193,205.254 
							265.049,193.444 269.896,175.998 						"/>
					</g>
					<g>
						<path style="fill:#F5F5F5;" d="M265.549,169.946l0.519-12.965l-16.303-32.726l-25.279,10.004l8.691,35.688H265.549z
							 M248.781,128.235l14.939,28.421l-2.158,8.857L236,164.551l-6.39-26.883L248.781,128.235z"/>
					</g>
					<g>
						<polygon style="fill:#F5F5F5;" points="272.003,326.386 272.768,351.852 290.74,350.841 290.797,351.839 272.798,352.851 
							273.713,383.332 290.706,382.257 290.832,384.253 273.773,385.332 274.228,400.488 290.788,400.488 291.147,315.499 
							274.211,317.209 						"/>
					</g>
					<g>
						<path style="fill:#F5F5F5;" d="M162.761,119.827l-38.059-5.463l-9.518,47.421l47.745,3.537
							C163.12,158.021,162.953,135.626,162.761,119.827z"/>
					</g>
					<g>
						<polygon style="fill:#F5F5F5;" points="225.359,169.946 231.118,169.946 222.969,136.483 201.788,137.348 202.296,168.238 
													"/>
					</g>
					<g>
						<path style="fill:#F5F5F5;" d="M108.489,424.832l-0.03,7.018c-0.001,0.216,0.024,0.426,0.03,0.642V424.832z"/>
					</g>
					<g>
						<path style="fill:#F5F5F5;" d="M163.904,165.394l37.391,2.77l-0.506-30.775l-36.837,1.505
							C164.028,149.301,164.06,160.402,163.904,165.394z"/>
					</g>
					<g>
						<polygon style="fill:#F5F5F5;" points="271.968,264.9 239.334,268.922 243.716,288.555 273.954,285.409 						"/>
					</g>
					<g>
						<path style="fill:#F5F5F5;" d="M280.815,145.946l2.091-12.405l9.008,0.701l0.113-26.712l-27.786,10.996
							C263.674,137.323,275.481,143.933,280.815,145.946z"/>
					</g>
					<g>
						<polygon style="fill:#F5F5F5;" points="270.116,193.887 271.25,205.604 291.606,207.012 291.708,182.886 274.667,177.504 
													"/>
					</g>
					<g>
						<path style="fill:#F5F5F5;" d="M279.804,293.951l-5.346,22.228l16.693-1.685l0.098-23.309
							c-5.123-1.349-9.593-2.448-11.995-2.911L279.804,293.951z"/>
					</g>
					<g>
						<polygon style="fill:#F5F5F5;" points="268.537,170.326 291.73,177.65 291.786,164.46 269.007,158.574 						"/>
					</g>
					<g>
						<path style="fill:#F5F5F5;" d="M278.959,285.222c1.869,0.282,5.412,1.035,12.304,2.846l0.215-50.965l-17.02,1.637
							L278.959,285.222z"/>
					</g>
					<g>
						<polygon style="fill:#F5F5F5;" points="274.266,236.749 291.487,235.093 291.593,210.019 271.543,208.632 						"/>
					</g>
					<g>
						<path style="fill:#F5F5F5;" d="M282.737,146.577c3.264,0.993,6.301,1.76,9.115,2.324l0.053-12.654l-7.331-0.571
							L282.737,146.577z"/>
					</g>
					<g>
						<path style="fill:#F5F5F5;" d="M280.727,158.504l11.072,2.861l0.048-11.436c-2.864-0.574-5.955-1.353-9.278-2.359
							L280.727,158.504z"/>
					</g>
					<g>
						<path style="fill:#FFFFFF;" d="M290.832,384.253l-0.126-1.996l-16.992,1.075l-0.915-30.48l17.999-1.013l-0.057-0.998
							l-17.972,1.011l-0.765-25.466l2.207-9.177l16.936-1.709l0.004-1.005l-16.693,1.685l5.346-22.228l-0.55-5.677
							c2.402,0.463,6.873,1.562,11.995,2.911l0.013-3.117c-6.892-1.812-10.435-2.564-12.304-2.846l-4.501-46.482l17.02-1.637
							l0.009-2.01l-17.221,1.656l-2.722-28.117l20.05,1.387l0.013-3.007l-20.356-1.408l-1.134-11.717l4.551-16.383l17.041,5.382
							l0.022-5.236l-23.193-7.324l0.47-11.751l22.779,5.886l0.013-3.094l-11.072-2.861l1.842-10.934
							c3.323,1.007,6.414,1.786,9.278,2.359l0.004-1.028c-2.813-0.564-5.85-1.332-9.115-2.324l1.837-10.901l7.331,0.571l0.008-2.005
							l-9.008-0.701l-2.091,12.405c-5.334-2.013-17.141-8.623-16.575-27.42l27.786-10.996l0.005-1.272l-0.302-0.762l-27.479,10.874
							l-0.031-47.275l-1-0.004l0.031,47.675l-11.582,4.583l-17.404-34.937c-0.816,0.586-1.765,0.979-2.789,1.131l17.393,34.914
							l-26.74,10.582l0.597,2.452l-20.956,0.856l-0.804-48.864l-1-0.005l0.805,48.91l-36.828,1.505
							c-0.059-7.54-0.139-14.59-0.187-18.507l-0.005-0.428l-0.014-0.002l-2.261-50.335l-1.001-0.005l2.255,50.195l-37.83-5.431
							l9.01-44.887l-2.576-0.012c-0.164-0.001-0.323,0.019-0.486,0.022l-8.922,44.449l-12.019-1.726l-0.094,0.652l-0.001,0.345
							l11.917,1.711l-9.559,47.625l-2.565-0.19l-0.021,5.012l18.73,1.387v24.696l-18.858,4.265l-0.013,3.079l21.871-4.947v-26.871
							l70.024,5.187v28.617h-22.392l-2.942,13.323h-18.229l-48.435,8.814l-0.013,3.051l48.718-8.866h55.476l1.993,24.277
							l-57.7,5.548l0.191,1.991l57.672-5.545l3.821,46.53l-58.268-7.612l-0.389,2.975l58.908,7.695l2.257,27.493l-61.662,6.223
							l-31.994,2.264v-41.941l30.315-17.682l-1.512-2.592l-29.616,17.273l-18.446-2.434l-0.013,3.025l18.272,2.412v26.689
							l-18.403,1.949l-0.013,3.017l18.416-1.951v13.306l0.015-0.001l1.086,37.73l-0.007-0.019l-19.749,7.737l-0.014,3.227
							l19.861-7.781l0.591,20.553l-20.512,1.298l-0.003,0.665l0.084,1.334l20.488-1.296l0.173,6.01h1.001l-0.175-6.074l79.452-5.026
							c-0.151,3.904-0.298,7.689-0.432,11.099h2.001c0.126-3.221,0.277-7.095,0.437-11.226l17.153-1.085l2.454,12.311h1.019
							l-2.466-12.375l38.973-2.465l0.445,14.84h5.003 M211.726,387.253c0.068-1.776,0.138-3.585,0.207-5.4l15.616,0.043l0.858,4.303
							L211.726,387.253z M229.413,386.134l-0.958-4.808l-2.334-21.963l-1.315-16.015l42.609-3.211l1.306,43.511L229.413,386.134z
							 M239.103,320.752l22.412-2.262l-0.626,8.8l-20.087,2.166L239.103,320.752z M238.104,320.852l3.748,19.205l-17.211,1.297
							l-1.559-18.986L238.104,320.852z M267.354,338.135l-24.497,1.846l-1.67-8.555l21.579-2.328l0.769-10.813l5.405-0.546
							l-1.954,8.126L267.354,338.135z M238.337,269.044l4.377,19.615l-22.21,2.31l-1.604-19.53L238.337,269.044z M243.716,288.555
							l-4.381-19.634l32.634-4.021l1.986,20.509L243.716,288.555z M266.193,205.254l-49.239-3.407l4.686-27.163l3.443,0.255
							l41.483,0.007l3.33,1.052l-4.847,17.446L266.193,205.254z M263.229,118.926c-0.048,5.157,1.082,22.192,17.418,28.021
							l-1.863,11.054l-10.163-2.626l-16.055-32.229L263.229,118.926z M249.765,124.255l16.303,32.726l-0.519,12.965h-32.373
							l-8.691-35.688L249.765,124.255z M222.969,136.483l8.149,33.464h-5.758l-23.063-1.708l-0.508-30.889L222.969,136.483z
							 M200.788,137.389l0.506,30.775l-37.391-2.77c0.156-4.992,0.125-16.092,0.047-26.5L200.788,137.389z M124.702,114.364
							l38.059,5.463c0.192,15.799,0.359,38.194,0.168,45.495l-47.745-3.537L124.702,114.364z M220.637,174.61l-6.988,40.51h-11.313
							v-41.866L220.637,174.61z M181.354,204.798h19.982v10.323h-22.261L181.354,204.798z M214.401,216.643l2.04-11.824
							l50.045,3.462l2.803,28.945l-52.78,5.075L214.401,216.643z M269.481,239.218l2.198,22.696l-53.024,6.534l-1.983-24.152
							L269.481,239.218z M220.75,293.96l53.493-5.564l0.504,5.202l-5.559,23.113l-46.187,4.661L220.75,293.96z M225.125,359.456
							l2.278,21.441h-15.434c0.269-7.074,0.533-14.145,0.719-19.458c0.333-9.523,0.333-9.523-0.302-9.841l-0.473,0.942l-0.967,0.052
							c0.045,0.832-0.431,13.896-0.962,27.867l-44.628-21.379l-1.577-30.728l58.308-5.884L225.125,359.456z M159.875,328.73
							l-0.314,39.457l-30.084,1.427l-1.112-38.655L159.875,328.73z M129.531,371.537l0.006-0.003l-0.007-0.018l-0.026-0.903
							l31.048-1.473l0.323-40.494l1.908-0.193l1.605,31.272l45.554,21.823c-0.074,1.942-0.149,3.895-0.223,5.831l-79.587,5.034
							L129.531,371.537z"/>
					</g>
					<g>
						<polygon style="fill:#EBEBEB;" points="174.911,370.138 131.454,373.188 131.454,387.137 203.185,383.255 						"/>
					</g>
					<g>
						<polygon style="fill:#EBEBEB;" points="264.435,211.908 220.967,209.16 218.281,216.621 219.753,238.851 266.951,233.254 
													"/>
					</g>
					<g>
						<path style="fill:#EBEBEB;" d="M108.592,387.253l-0.103,37.579v7.659c0.293,11.48,9.641,20.725,21.201,20.779l139.534,0.644
							c11.782,0.055,21.377-9.455,21.427-21.239l0.136-45.422H108.592z"/>
					</g>
					<g>
						<polygon style="fill:#EBEBEB;" points="158.63,114.582 157.909,73.704 136.675,73.704 130.518,110.468 						"/>
					</g>
					<g>
						<polygon style="fill:#EBEBEB;" points="261.562,165.513 263.72,156.657 248.781,128.235 229.609,137.669 236,164.551 						
							"/>
					</g>
					<g>
						<path style="fill:#EBEBEB;" d="M131.454,290.081c0.229,1.291,0,35.876,0,35.876l27.942-1.767l-3.207-47.267L131.454,290.081z"
							/>
					</g>
				</g>
				<g>
					<polygon style="fill:#EBEBEB;" points="224.649,318.167 223.171,296.733 271.095,290.573 271.095,294.269 265.3,313.978 					
						"/>
				</g>
				<g>
					<g>
						<g>
							<g>
								<path style="fill:#FFFFFF;" d="M269.327,372.769l-0.602-13.978l-42.128,2.048c-1.107,0.051-2.204-0.181-3.185-0.677
									l-59.751-30.179c-1.382-0.697-2.292-2.093-2.371-3.641l-8.134-157.736c-0.039-0.755,0.248-1.492,0.789-2.021
									c0.541-0.531,1.29-0.796,2.04-0.747l25.608,1.898V139.74h3v28.383c0,0.732-0.307,1.436-0.843,1.934
									c-0.535,0.498-1.258,0.751-1.991,0.698l-25.586-1.895l8.113,157.327c0.024,0.475,0.303,0.903,0.727,1.117l59.753,30.179
									c0.52,0.263,1.103,0.391,1.686,0.358l42.477-2.065c0.724-0.036,1.392,0.212,1.918,0.691c0.524,0.479,0.83,1.134,0.861,1.844
									l0.617,14.328L269.327,372.769z"/>
							</g>
						</g>
					</g>
				</g>
			</g>
		</g>
		<g>
			<g>
				<path style="fill:#E8505B;" d="M256.951,122.598c0,3.224-2.613,5.837-5.837,5.837c-3.224,0-5.837-2.613-5.837-5.837
					c0-3.224,2.613-5.837,5.837-5.837C254.337,116.762,256.951,119.375,256.951,122.598z"/>
			</g>
			<g style="opacity:0.6;">
				<path style="fill:#FFFFFF;" d="M256.945,122.348c0.138,3.221-2.361,5.943-5.581,6.081c-3.221,0.138-5.943-2.361-6.082-5.581
					c-0.138-3.22,2.361-5.943,5.581-6.081C254.084,116.629,256.807,119.128,256.945,122.348z"/>
			</g>
			<g>
				<path style="fill:#E8505B;" d="M254.996,122.397c0,2.144-1.738,3.882-3.882,3.882c-2.144,0-3.882-1.738-3.882-3.882
					c0-2.144,1.738-3.882,3.882-3.882C253.258,118.515,254.996,120.253,254.996,122.397z"/>
			</g>
		</g>
		<g>
			<path style="fill:#E8505B;" d="M270.594,374.913l-0.724-16.385c-0.011-0.237-0.113-0.456-0.288-0.615
				c-0.176-0.159-0.401-0.243-0.64-0.228l-43.99,2.28l-5.297-66.639l-6.629-76.73l0.012-0.066l7.506-40.984
				c0.282-1.541,1.624-2.663,3.19-2.668l39.731-0.124c1.497,0,2.74-1.169,2.833-2.662l0.681-11.02
				c0.087-1.404-0.188-2.816-0.797-4.084l-15.521-32.376l0.902-0.433l15.521,32.376c0.682,1.422,0.99,3.005,0.893,4.579
				l-0.681,11.02c-0.125,2.019-1.808,3.6-3.829,3.6l-39.73,0.124c-1.085,0.003-2.015,0.781-2.21,1.848l-7.494,40.918l6.618,76.599
				l5.22,65.673l43.017-2.229c0.518-0.029,0.99,0.147,1.364,0.486c0.375,0.341,0.593,0.807,0.615,1.312l0.725,16.384
				L270.594,374.913z"/>
		</g>
		<g>
			<path style="fill:#E8505B;" d="M273.32,373.579c0,1.378-1.117,2.494-2.494,2.494c-1.378,0-2.494-1.117-2.494-2.494
				s1.117-2.494,2.494-2.494C272.203,371.085,273.32,372.202,273.32,373.579z"/>
		</g>
		<g>
			<g>
				<path style="fill:#E8505B;" d="M225.204,327.448c0.089,1.292-0.887,2.411-2.179,2.499c-1.292,0.089-2.411-0.887-2.499-2.179
					c-0.089-1.292,0.887-2.411,2.179-2.499C223.997,325.181,225.116,326.156,225.204,327.448z"/>
			</g>
			<g>
				<path style="fill:#E8505B;" d="M223.081,329.433c-2.329,0.16-4.087,2.177-3.927,4.505l8.433-0.578
					C227.427,331.031,225.41,329.273,223.081,329.433z"/>
			</g>
		</g>
		<g>
			<g>
				<g>
					<path style="fill:#E8505B;" d="M256.4,302.599h-20.764c-1.75,0-3.169,1.419-3.169,3.168v13.038c0,1.75,1.419,3.169,3.169,3.169
						h0.42v3.107l3.604-3.107h16.74c1.75,0,3.169-1.419,3.169-3.169v-13.038C259.569,304.018,258.15,302.599,256.4,302.599z"/>
				</g>
			</g>
			<g style="opacity:0.4;">
				<g>
					<path style="fill:#FFFFFF;" d="M256.4,302.599h-20.764c-1.75,0-3.169,1.419-3.169,3.168v13.038c0,1.75,1.419,3.169,3.169,3.169
						h0.42v3.107l3.604-3.107h16.74c1.75,0,3.169-1.419,3.169-3.169v-13.038C259.569,304.018,258.15,302.599,256.4,302.599z"/>
				</g>
			</g>
			<g>
				<path style="fill:#FFFFFF;" d="M242.231,312.816v1.706h-0.698v-1.721l-1.96-3.214h0.754l1.579,2.601l1.586-2.601h0.698
					L242.231,312.816z"/>
				<path style="fill:#FFFFFF;" d="M244.032,312.654c0-1.114,0.825-1.903,1.946-1.903c1.121,0,1.939,0.789,1.939,1.903
					c0,1.113-0.817,1.91-1.939,1.91C244.857,314.564,244.032,313.767,244.032,312.654z M247.233,312.654
					c0-0.797-0.536-1.311-1.255-1.311c-0.719,0-1.262,0.515-1.262,1.311c0,0.797,0.543,1.318,1.262,1.318
					C246.697,313.972,247.233,313.451,247.233,312.654z"/>
				<path style="fill:#FFFFFF;" d="M252.333,310.785v3.736h-0.642v-0.564c-0.274,0.388-0.74,0.607-1.269,0.607
					c-0.966,0-1.607-0.528-1.607-1.628v-2.15h0.677v2.072c0,0.733,0.366,1.1,1.008,1.1c0.705,0,1.156-0.436,1.156-1.24v-1.932
					H252.333z"/>
			</g>
		</g>
		<g>
			<g>
				<g>
					<ellipse style="fill:#263238;" cx="133.314" cy="405.074" rx="0.26" ry="1.5"/>
				</g>
			</g>
			<g>
				<g>
					<ellipse style="fill:#263238;" cx="133.314" cy="411.074" rx="0.26" ry="1.5"/>
				</g>
			</g>
			<g>
				<g>
					<ellipse style="fill:#263238;" cx="133.314" cy="417.074" rx="0.26" ry="1.5"/>
				</g>
			</g>
			<g>
				<g>
					<ellipse style="fill:#263238;" cx="133.314" cy="423.074" rx="0.26" ry="1.5"/>
				</g>
			</g>
			<g>
				<g>
					<ellipse style="fill:#263238;" cx="133.314" cy="428.654" rx="0.26" ry="1.08"/>
				</g>
			</g>
		</g>
		<g>
			<g>
				<g>
					<path style="fill:#455A64;" d="M137.563,434.87c0-2.616-2.364-4.68-5.072-4.171c-1.703,0.32-3.061,1.711-3.359,3.418
						c-0.186,1.067,0.034,2.071,0.52,2.9h-0.002l0.012,0.016c0.163,0.275,0.367,0.471,0.573,0.759l2.467,3.268
						c0.307,0.407,0.918,0.407,1.225,0l2.426-3.214c0,0,0.453-0.54,0.617-0.818l0.009-0.012h-0.002
						C137.347,436.386,137.563,435.654,137.563,434.87z M133.314,436.72c-1.033,0-1.87-0.837-1.87-1.87
						c0-1.033,0.837-1.87,1.87-1.87s1.87,0.837,1.87,1.87C135.184,435.882,134.347,436.72,133.314,436.72z"/>
				</g>
			</g>
			<g>
				<g>
					<path style="fill:#263238;" d="M241.187,436.72c0,0.144-21.555,0.26-48.139,0.26c-26.593,0-48.143-0.117-48.143-0.26
						c0-0.144,21.551-0.26,48.143-0.26C219.632,436.459,241.187,436.576,241.187,436.72z"/>
				</g>
			</g>
			<g>
				<g>
					<path style="fill:#E8505B;" d="M203.185,432.497c0,0.144-13.06,0.26-29.168,0.26c-16.113,0-29.17-0.117-29.17-0.26
						c0-0.144,13.058-0.26,29.17-0.26C190.124,432.237,203.185,432.353,203.185,432.497z"/>
				</g>
			</g>
			<g>
				<g>
					<path style="fill:#263238;" d="M160.64,441.495c0,0.144-3.453,0.26-7.713,0.26c-4.261,0-7.713-0.117-7.713-0.26
						c0-0.144,3.453-0.26,7.713-0.26C157.187,441.235,160.64,441.352,160.64,441.495z"/>
				</g>
			</g>
		</g>
		<g>
			<g>
				<g>
					<path style="fill:#E8505B;" d="M137.563,401.724c0-2.616-2.364-4.68-5.072-4.171c-1.703,0.32-3.061,1.711-3.359,3.418
						c-0.186,1.067,0.034,2.071,0.52,2.9h-0.002l0.012,0.016c0.163,0.275,0.367,0.471,0.573,0.759l2.467,3.268
						c0.307,0.407,0.918,0.407,1.225,0l2.426-3.214c0,0,0.453-0.54,0.617-0.817l0.009-0.012h-0.002
						C137.347,403.24,137.563,402.508,137.563,401.724z M133.314,403.574c-1.033,0-1.87-0.837-1.87-1.87s0.837-1.87,1.87-1.87
						s1.87,0.837,1.87,1.87S134.347,403.574,133.314,403.574z"/>
				</g>
			</g>
			<g>
				<g>
					<path style="fill:#263238;" d="M261.515,403.574c0,0.144-26.106,0.26-58.302,0.26c-32.207,0-58.308-0.116-58.308-0.26
						c0-0.144,26.101-0.26,58.308-0.26C235.409,403.314,261.515,403.43,261.515,403.574z"/>
				</g>
			</g>
			<g>
				<g>
					<path style="fill:#E8505B;" d="M227.403,399.351c0,0.144-18.482,0.26-41.276,0.26c-22.802,0-41.28-0.117-41.28-0.26
						c0-0.144,18.478-0.26,41.28-0.26C208.921,399.091,227.403,399.208,227.403,399.351z"/>
				</g>
			</g>
			<g>
				<g>
					<path style="fill:#263238;" d="M190.455,408.35c0,0.144-10.128,0.26-22.619,0.26c-12.495,0-22.621-0.117-22.621-0.26
						c0-0.144,10.126-0.26,22.621-0.26C180.326,408.089,190.455,408.206,190.455,408.35z"/>
				</g>
			</g>
		</g>
	</g>
</g>
<g id="Speech_Bubble">
	<g>
		<g>
			<g>
				<g>
					<g>
						<path style="fill:#FFFFFF;" d="M428.448,163.418l-4.554-10.15c-4.615-0.374-9.188-1.987-13.196-4.926
							c-11.525-8.454-14.014-24.651-5.56-36.176c8.454-11.525,24.651-14.015,36.176-5.56c11.525,8.454,14.014,24.651,5.56,36.176
							c-3.53,4.812-8.412,8.043-13.738,9.565l0.015,0L428.448,163.418z"/>
					</g>
					<g>
						<g>
							<path style="fill:#263238;" d="M428.448,163.418c0.346-0.84,1.723-4.182,4.583-11.122l0.122,0.18c0,0-0.009,0-0.014,0
								l-1.006,0.026l0.968-0.281c3.541-1.027,7.773-3.112,11.415-6.923c0.898-0.954,1.782-1.989,2.547-3.157
								c0.378-0.587,0.781-1.17,1.154-1.784c0.331-0.637,0.667-1.284,1.007-1.939c1.241-2.676,2.094-5.712,2.336-8.947
								c0.525-6.437-1.553-13.759-6.617-19.27c-2.52-2.731-5.71-4.992-9.325-6.453c-3.609-1.449-7.641-2.174-11.677-1.79
								c-4.107,0.37-8.099,1.621-11.457,3.766c-3.374,2.113-6.163,4.961-8.179,8.164c-2.018,3.202-3.288,6.753-3.722,10.285
								c-0.451,3.531-0.147,7.017,0.73,10.183c0.874,3.172,2.318,6.02,4.076,8.425c1.773,2.408,3.91,4.286,6.026,5.844
								c4.34,3.032,8.889,4.206,12.491,4.518l0.075,0.007l0.029,0.067C426.785,159.598,428.102,162.623,428.448,163.418
								c-0.364-0.787-1.748-3.782-4.668-10.099l0.104,0.073c-3.639-0.274-8.256-1.423-12.676-4.47
								c-2.156-1.565-4.335-3.46-6.148-5.898c-1.798-2.435-3.279-5.325-4.179-8.548c-0.903-3.217-1.224-6.765-0.774-10.363
								c0.433-3.599,1.719-7.223,3.771-10.491c2.05-3.268,4.89-6.178,8.332-8.336c3.425-2.19,7.497-3.469,11.687-3.847
								c4.118-0.39,8.233,0.35,11.913,1.831c3.688,1.495,6.936,3.803,9.501,6.593c2.565,2.798,4.394,6.096,5.493,9.48
								c1.101,3.391,1.463,6.877,1.201,10.163c-0.258,3.291-1.139,6.375-2.412,9.088c-0.349,0.664-0.693,1.318-1.032,1.964
								c-0.381,0.621-0.793,1.212-1.18,1.805c-0.783,1.181-1.686,2.226-2.602,3.188c-3.718,3.843-8.021,5.919-11.608,6.918
								l-0.038-0.255c0.005,0,0.014,0,0.014,0l0.202-0.003l-0.08,0.184C430.261,159.275,428.812,162.587,428.448,163.418z"/>
						</g>
					</g>
				</g>
			</g>
		</g>
		<g>
			<g>
				<path style="fill:#E8505B;" d="M436.973,126.503c0-5.995-5.418-10.724-11.624-9.559c-3.904,0.733-7.015,3.921-7.698,7.834
					c-0.427,2.446,0.077,4.746,1.193,6.645h-0.005l0.028,0.037c0.373,0.629,0.841,1.079,1.314,1.74l5.653,7.489
					c0.703,0.932,2.103,0.932,2.807,0l5.559-7.365c0,0,1.038-1.237,1.414-1.874l0.02-0.027h-0.004
					C436.478,129.977,436.973,128.3,436.973,126.503z M427.236,130.742c-2.367,0-4.285-1.919-4.285-4.285
					c0-2.367,1.919-4.285,4.285-4.285c2.367,0,4.285,1.919,4.285,4.285C431.521,128.824,429.603,130.742,427.236,130.742z"/>
			</g>
		</g>
	</g>
</g>
<g id="Character">
	<g>
		<g>
			<g>
				<g>
					<g>
						<g>
							<g>
								<g>
									<g>
										<path style="fill:#263238;" d="M355.483,116.002c0.898-3.335,3.407-4.976,6.676-6.091
											c3.269-1.115,7.075-0.497,9.823,1.595c1.838,1.399,3.277,3.432,5.459,4.19c3.592,1.249,7.803-1.441,11.247,0.171
											c2.039,0.954,3.224,3.442,2.681,5.627s-2.755,3.828-5.004,3.716c2.344,0.856,3.073,4.201,1.704,6.287
											s-4.183,2.875-6.637,2.417c-2.454-0.458-4.592-1.946-6.449-3.614c-1.856-1.668-3.52-3.556-5.503-5.072
											c-1.983-1.516-4.389-2.662-6.882-2.528c-3.374,0.182-6.27,2.726-7.773,5.752c-1.503,3.026-1.851,6.482-2.039,9.856
											c-0.188,3.374-0.248,6.804-1.247,10.032c-0.117,0.379-0.296,0.803-0.675,0.92c-0.548,0.168-1.014-0.413-1.286-0.918
											c-3.071-5.696-5.008-12-5.666-18.438c-0.382-3.739-0.283-7.28,1.773-10.426
											C347.74,116.333,352.934,114.016,355.483,116.002"/>
									</g>
								</g>
							</g>
						</g>
						<g>
							<g>
								<g>
									<g>
										<g>
											<g>
												<g>
													<g>
														<g>
															<g>
																<g>
																	<g>
																		<g>
																			<g>
																				<g>
																					<g>
																						<g>
																							<path style="fill:#FFBE9D;" d="M348.957,131.659l-1.726,37.851c-0.293,6.437,0.591,15.952,10.789,15.952l0,0
																								c8.848-0.667,11.464-8.936,11.732-14.943c0.127-2.849,0.239-5.225,0.271-5.517c0,0,9.677-0.467,10.808-9.972
																								c0.546-4.593,0.901-14.146,1.122-22.792c0.238-9.285-6.707-17.192-15.943-18.175l-0.918-0.098
																								C355.127,113.489,349.157,121.686,348.957,131.659z"/>
																						</g>
																					</g>
																				</g>
																			</g>
																		</g>
																	</g>
																</g>
															</g>
														</g>
													</g>
												</g>
												<g>
													<g>
														<g>
															<g>
																<g>
																	<g>
																		<g>
																			<g>
																				<g>
																					<g>
																						<g>
																							<path style="fill:#EB996E;" d="M370.053,164.867c0,0-6.067-0.151-12.033-4.847c0,0,2.204,7.162,11.793,7.316
																								L370.053,164.867z"/>
																						</g>
																					</g>
																				</g>
																			</g>
																		</g>
																	</g>
																</g>
															</g>
														</g>
													</g>
												</g>
											</g>
										</g>
									</g>
									<g>
										<g>
											<g>
												<g>
													<g>
														<g>
															<g>
																<g>
																	<g>
																		<g>
																			<g>
																				<g>
																					<g>
																						<g>
																							<g>
																								<g>
																									<g>
																										<path style="fill:#263238;" d="M379.502,139.318c-0.051,0.72-0.703,1.271-1.457,1.232
																											c-0.752-0.04-1.322-0.654-1.271-1.375c0.051-0.72,0.703-1.272,1.455-1.233
																											C378.983,137.982,379.553,138.598,379.502,139.318z"/>
																									</g>
																								</g>
																							</g>
																						</g>
																					</g>
																				</g>
																			</g>
																		</g>
																	</g>
																</g>
															</g>
															<g>
																<g>
																	<g>
																		<g>
																			<g>
																				<g>
																					<g>
																						<g>
																							<g>
																								<g>
																									<g>
																										<g>
																											<path style="fill:#263238;" d="M379.411,136.692c-0.187,0.159-1.136-0.712-2.599-0.864
																												c-1.459-0.173-2.613,0.466-2.752,0.27c-0.069-0.088,0.136-0.389,0.64-0.68
																												c0.496-0.29,1.316-0.536,2.227-0.435c0.911,0.102,1.641,0.519,2.045,0.909
																												C379.384,136.284,379.502,136.621,379.411,136.692z"/>
																										</g>
																									</g>
																								</g>
																							</g>
																						</g>
																					</g>
																				</g>
																			</g>
																		</g>
																	</g>
																</g>
															</g>
														</g>
														<g>
															<g>
																<g>
																	<g>
																		<g>
																			<g>
																				<g>
																					<g>
																						<g>
																							<g>
																								<g>
																									<g>
																										<path style="fill:#263238;" d="M365.103,138.288c-0.051,0.721-0.703,1.271-1.457,1.232
																											c-0.752-0.039-1.322-0.654-1.271-1.375c0.051-0.72,0.703-1.272,1.456-1.233
																											C364.585,136.952,365.154,137.568,365.103,138.288z"/>
																									</g>
																								</g>
																							</g>
																						</g>
																					</g>
																				</g>
																			</g>
																		</g>
																	</g>
																</g>
															</g>
															<g>
																<g>
																	<g>
																		<g>
																			<g>
																				<g>
																					<g>
																						<g>
																							<g>
																								<g>
																									<g>
																										<g>
																											<path style="fill:#263238;" d="M365.005,135.434c-0.188,0.159-1.138-0.712-2.6-0.864
																												c-1.459-0.172-2.613,0.466-2.753,0.27c-0.069-0.088,0.135-0.389,0.64-0.679
																												c0.496-0.29,1.316-0.536,2.226-0.436c0.911,0.102,1.641,0.519,2.046,0.909
																												C364.977,135.027,365.096,135.364,365.005,135.434z"/>
																										</g>
																									</g>
																								</g>
																							</g>
																						</g>
																					</g>
																				</g>
																			</g>
																		</g>
																	</g>
																</g>
															</g>
														</g>
														<g>
															<g>
																<g>
																	<g>
																		<g>
																			<g>
																				<g>
																					<g>
																						<g>
																							<g>
																								<g>
																									<g>
																										<path style="fill:#263238;" d="M369.158,146.846c0.002-0.084,0.928-0.144,2.421-0.176
																											c0.378,0.001,0.739-0.035,0.829-0.284c0.117-0.26,0.003-0.68-0.132-1.134
																											c-0.255-0.941-0.522-1.928-0.802-2.962c-1.103-4.212-1.859-7.66-1.689-7.703
																											c0.17-0.043,1.202,3.337,2.305,7.549c0.263,1.038,0.515,2.027,0.754,2.974
																											c0.096,0.439,0.288,0.947,0.038,1.487c-0.13,0.268-0.426,0.442-0.672,0.481
																											c-0.247,0.048-0.458,0.029-0.644,0.021C370.076,147.021,369.155,146.93,369.158,146.846z"/>
																									</g>
																								</g>
																							</g>
																						</g>
																					</g>
																				</g>
																			</g>
																		</g>
																	</g>
																</g>
															</g>
														</g>
													</g>
												</g>
											</g>
											<g>
												<g>
													<g>
														<g>
															<g>
																<g>
																	<g>
																		<g>
																			<g>
																				<g>
																					<g>
																						<path style="fill:#263238;" d="M365.992,129.742c-0.187,0.382-1.627,0.038-3.365,0.063
																							c-1.739-0.011-3.176,0.344-3.366-0.036c-0.083-0.182,0.198-0.53,0.798-0.856
																							c0.595-0.325,1.519-0.596,2.562-0.602c1.042-0.003,1.968,0.261,2.566,0.582
																							C365.791,129.214,366.075,129.56,365.992,129.742z"/>
																					</g>
																				</g>
																			</g>
																		</g>
																	</g>
																</g>
															</g>
														</g>
													</g>
												</g>
											</g>
											<g>
												<g>
													<g>
														<g>
															<g>
																<g>
																	<g>
																		<g>
																			<g>
																				<g>
																					<g>
																						<path style="fill:#263238;" d="M379.324,132.401c-0.293,0.305-1.263-0.147-2.473-0.292
																							c-1.205-0.188-2.261-0.015-2.46-0.388c-0.086-0.18,0.111-0.495,0.593-0.762
																							c0.475-0.266,1.241-0.444,2.071-0.33c0.83,0.115,1.519,0.493,1.905,0.878
																							C379.35,131.894,379.454,132.251,379.324,132.401z"/>
																					</g>
																				</g>
																			</g>
																		</g>
																	</g>
																</g>
															</g>
														</g>
													</g>
												</g>
											</g>
										</g>
									</g>
								</g>
							</g>
						</g>
						<g>
							<g>
								<g>
									<g>
										<g>
											<g>
												<g>
													<g>
														<g>
															<g>
																<g>
																	<g>
																		<path style="fill:#FFBE9D;" d="M348.984,138.79c-0.155-0.087-6.334-2.63-6.819,3.899
																			c-0.485,6.529,6.17,5.669,6.195,5.483C348.387,147.985,348.984,138.79,348.984,138.79z"/>
																	</g>
																</g>
															</g>
														</g>
													</g>
												</g>
											</g>
										</g>
									</g>
								</g>
							</g>
							<g>
								<g>
									<g>
										<g>
											<g>
												<g>
													<g>
														<g>
															<g>
																<g>
																	<g>
																		<g>
																			<path style="fill:#EB996E;" d="M346.551,145.549c-0.027-0.023-0.12,0.071-0.319,0.145
																				c-0.194,0.072-0.521,0.107-0.852-0.046c-0.671-0.305-1.17-1.443-1.115-2.622
																				c0.027-0.595,0.194-1.152,0.439-1.605c0.235-0.463,0.568-0.774,0.92-0.809c0.351-0.054,0.582,0.172,0.648,0.362
																				c0.074,0.189,0.023,0.316,0.057,0.33c0.017,0.018,0.148-0.099,0.116-0.373c-0.017-0.132-0.082-0.291-0.227-0.428
																				c-0.147-0.139-0.373-0.221-0.617-0.213c-0.506-0.003-0.994,0.427-1.263,0.924
																				c-0.297,0.497-0.499,1.122-0.529,1.791c-0.056,1.319,0.526,2.6,1.45,2.943c0.45,0.154,0.844,0.044,1.053-0.096
																				C346.527,145.706,346.572,145.563,346.551,145.549z"/>
																		</g>
																	</g>
																</g>
															</g>
														</g>
													</g>
												</g>
											</g>
										</g>
									</g>
								</g>
							</g>
						</g>
						<g>
							<g>
								<g>
									<g>
										<path style="fill:#263238;" d="M384.178,130.476c-4.311,0.67-8.909-0.892-11.919-4.05
											c-2.106-2.21-3.592-5.222-6.399-6.424c-1.889-0.809-4.104-0.618-5.998,0.179s-3.504,2.153-4.92,3.642
											c1.324,5.033-0.486,10.301-2.272,15.188c-0.198,0.54-0.427,1.12-0.917,1.421c-0.833,0.51-1.936-0.075-2.532-0.849
											c-0.954-1.238-1.202-2.871-1.314-4.431c-0.254-3.553,0.043-7.175,1.186-10.548c1.144-3.373,3.166-6.49,5.987-8.665
											c3.525-2.718,8.178-3.827,12.597-3.288c4.418,0.539,8.58,2.663,11.828,5.706c1.507,1.412,2.858,3.068,3.506,5.029"/>
									</g>
								</g>
							</g>
						</g>
					</g>
					<g>
						<g>
							<g>
								<path style="fill:#EB996E;" d="M369.61,150.981c-0.228,0.577-0.461,1.162-0.842,1.651c-0.382,0.489-0.94,0.876-1.559,0.905
									c-0.66,0.031-1.296-0.359-1.665-0.908c-0.368-0.549-0.493-1.233-0.464-1.893c0.027-0.597,0.3-1.309,0.893-1.38
									c0.247-0.029,0.49,0.066,0.72,0.16c1.039,0.421,2.079,0.843,3.118,1.265"/>
							</g>
						</g>
						<g>
							<g>
								<g>
									<path style="fill:#263238;" d="M368.365,153.546c-0.016-0.098-0.7,0.18-1.663-0.206c-0.466-0.188-0.976-0.559-1.257-1.142
										c-0.281-0.577-0.337-1.357-0.041-2.04c0.068-0.171,0.171-0.327,0.272-0.466c0.124-0.13,0.101-0.124,0.235-0.104
										c0.127,0.034,0.332,0.131,0.499,0.196c0.174,0.071,0.345,0.14,0.512,0.208c0.668,0.27,1.272,0.506,1.782,0.697
										c1.021,0.381,1.668,0.582,1.698,0.511c0.03-0.071-0.562-0.399-1.543-0.873c-0.491-0.237-1.079-0.51-1.735-0.806
										c-0.165-0.074-0.333-0.149-0.505-0.226c-0.182-0.075-0.321-0.156-0.569-0.234c-0.122-0.034-0.294-0.054-0.463,0.013
										c-0.165,0.067-0.267,0.179-0.344,0.272c-0.139,0.186-0.262,0.376-0.35,0.591c-0.367,0.852-0.278,1.795,0.095,2.495
										c0.381,0.714,1.031,1.116,1.582,1.279c0.561,0.173,1.044,0.131,1.351,0.053
										C368.232,153.682,368.377,153.577,368.365,153.546z"/>
								</g>
							</g>
						</g>
					</g>
				</g>
				<g>
					<g>
						<g>
							<g>
								<g>
									<g>
										<path style="fill:#E8505B;" d="M427.063,422.777l7.284,21.143c0,0,23.937-0.303,25.664,3.473l-40.488,15.596
											l-12.702-32.478L427.063,422.777z"/>
									</g>
								</g>
							</g>
							<g>
								<g>
									<g>
										<g>
											<path style="fill:#E0E0E0;" d="M421.153,446.988c-0.701,0.516-0.903,1.606-0.417,2.327
												c0.487,0.722,1.593,0.937,2.303,0.433c0.71-0.504,0.993-1.804,0.428-2.467c-0.564-0.663-1.877-0.844-2.446-0.185"/>
										</g>
									</g>
								</g>
							</g>
							<g style="opacity:0.6;">
								<g>
									<g>
										<path style="fill:#FFFFFF;" d="M419.524,462.989l-1.152-3.324l39.25-13.711c0,0,2.105,0.09,2.39,1.438L419.524,462.989z"
											/>
									</g>
								</g>
							</g>
							<g>
								<g>
									<g>
										<g>
											<path style="fill:#263238;" d="M434.925,443.461c0.07,0.2-0.884,0.671-1.612,1.681c-0.754,0.991-0.926,2.041-1.138,2.033
												c-0.197,0.032-0.358-1.264,0.545-2.472C433.611,443.487,434.898,443.263,434.925,443.461z"/>
										</g>
									</g>
								</g>
							</g>
							<g>
								<g>
									<g>
										<g>
											<path style="fill:#263238;" d="M439.848,443.581c0.119,0.174-0.608,0.84-0.957,1.935
												c-0.382,1.085-0.203,2.054-0.403,2.121c-0.174,0.103-0.757-1.003-0.296-2.355
												C438.64,443.925,439.771,443.395,439.848,443.581z"/>
										</g>
									</g>
								</g>
							</g>
							<g>
								<g>
									<g>
										<g>
											<path style="fill:#263238;" d="M444.218,447.735c-0.163,0.111-0.819-0.771-0.728-2.049
												c0.081-1.279,0.849-2.065,0.996-1.933c0.174,0.12-0.202,0.932-0.26,1.982
												C444.142,446.784,444.406,447.64,444.218,447.735z"/>
										</g>
									</g>
								</g>
							</g>
							<g>
								<g>
									<g>
										<g>
											<path style="fill:#263238;" d="M432.73,438.827c-0.013,0.212-1.026,0.289-2.114,0.795
												c-1.099,0.484-1.824,1.194-1.992,1.064c-0.17-0.099,0.397-1.158,1.688-1.736
												C431.597,438.362,432.767,438.634,432.73,438.827z"/>
										</g>
									</g>
								</g>
							</g>
						</g>
					</g>
				</g>
				<g>
					<g>
						<g>
							<g>
								<path style="fill:#E8505B;" d="M278.52,419.997l-0.455,0.594l-8.761,11.439l-10.852,7.441l14.53,27.992l16,0.018
									c0,0-1.155-3.846-8.853-5.837l-0.505-15.366l13.82-15.181"/>
							</g>
						</g>
						<g style="opacity:0.6;">
							<g>
								<polygon style="fill:#FFFFFF;" points="258.452,439.471 272.982,467.463 288.982,467.48 287.182,465.074 274.172,464.345 
									260.76,437.888 								"/>
							</g>
						</g>
					</g>
					<g>
						<g>
							<g>
								<path style="fill:#263238;" d="M280.031,454.603c-0.119,0.164-1.041-0.361-2.278-0.327
									c-1.238-0.001-2.146,0.548-2.269,0.388c-0.15-0.121,0.752-1.079,2.259-1.092
									C279.251,453.545,280.178,454.478,280.031,454.603z"/>
							</g>
						</g>
					</g>
					<g>
						<g>
							<g>
								<path style="fill:#263238;" d="M279.776,450.793c-0.16,0.113-0.872-0.832-2.148-1.081c-1.274-0.263-2.295,0.333-2.399,0.167
									c-0.054-0.072,0.13-0.34,0.58-0.585c0.441-0.244,1.169-0.43,1.958-0.272c0.788,0.159,1.388,0.612,1.701,1.008
									C279.788,450.429,279.854,450.747,279.776,450.793z"/>
							</g>
						</g>
					</g>
					<g>
						<g>
							<g>
								<path style="fill:#263238;" d="M279.883,445.898c-0.175,0.088-0.72-0.837-1.835-1.223c-1.11-0.401-2.115-0.024-2.195-0.202
									c-0.043-0.08,0.16-0.303,0.603-0.469c0.435-0.166,1.126-0.239,1.827,0.008c0.701,0.248,1.192,0.74,1.426,1.142
									C279.95,445.561,279.967,445.862,279.883,445.898z"/>
							</g>
						</g>
					</g>
					<g>
						<g>
							<g>
								<path style="fill:#263238;" d="M284.168,442.106c-0.19,0.067-0.64-0.843-1.633-1.487c-0.974-0.672-1.987-0.74-1.998-0.941
									c-0.054-0.185,1.186-0.457,2.389,0.356C284.138,440.836,284.36,442.085,284.168,442.106z"/>
							</g>
						</g>
					</g>
					<g style="opacity:0.6;">
						<g>
							<path style="fill:#FFFFFF;" d="M271.216,438.993c0,1.048-0.85,1.898-1.898,1.898c-1.048,0-1.898-0.85-1.898-1.898
								c0-1.048,0.85-1.898,1.898-1.898C270.366,437.095,271.216,437.945,271.216,438.993z"/>
						</g>
					</g>
				</g>
				<g>
					<g>
						<polygon style="fill:#263238;" points="331.801,304.803 381.271,377.304 408.014,440.702 430.663,428.592 407.765,365.101 
							374.115,298.406 						"/>
					</g>
					<g>
						<polygon style="fill:#263238;" points="311.373,298.406 303.115,356.774 269.348,430.414 289.461,442.109 332.408,369.115 
							356.248,298.406 						"/>
					</g>
					<g>
						<g>
							<path style="fill:#455A64;" d="M289.461,442.109c-0.008-0.005,0.052-0.124,0.175-0.353c0.138-0.25,0.324-0.584,0.56-1.01
								c0.516-0.908,1.253-2.203,2.195-3.86c1.94-3.365,4.724-8.192,8.157-14.146c6.943-11.94,16.512-28.396,27.082-46.571
								c1.73-2.964,3.434-5.883,5.051-8.654l-0.022,0.049c5.89-17.735,11.101-33.426,14.85-44.714
								c1.885-5.604,3.402-10.114,4.457-13.252c0.526-1.531,0.936-2.726,1.225-3.566c0.138-0.386,0.247-0.69,0.329-0.92
								c0.077-0.206,0.12-0.31,0.127-0.308c0.008,0.003-0.02,0.112-0.081,0.323c-0.071,0.234-0.165,0.543-0.284,0.935
								c-0.268,0.847-0.65,2.052-1.139,3.595c-1.02,3.15-2.486,7.676-4.308,13.302c-3.708,11.301-8.861,27.011-14.687,44.768
								l-0.008,0.026l-0.014,0.024c-1.616,2.772-3.318,5.691-5.048,8.656c-10.621,18.145-20.236,34.574-27.213,46.494
								c-3.493,5.919-6.326,10.717-8.3,14.063c-0.978,1.635-1.743,2.914-2.28,3.81c-0.255,0.415-0.455,0.741-0.604,0.984
								C289.544,442.003,289.469,442.114,289.461,442.109z"/>
						</g>
					</g>
				</g>
				<g>
					<g>
						<path style="fill:#E8505B;" d="M377.261,266.806l-1.669-25.05l-6.344-59.052l2.253-12.318l-25-10l-3,6
							c-15.015,2.259-21.332,31.891-21.332,31.891l-0.522,60.248l-16.667,40.845l4.324,3.812c6.829,4.097,70.461,1.516,70.461,1.516
							L377.261,266.806z"/>
					</g>
					<g style="opacity:0.3;">
						<g>
							<path d="M311.373,283.702c4.503,5.709,9.282,10.242,15.099,14.605c3.104,2.328,6.783,4.54,10.615,3.928
								c3.711-0.592,6.464-3.647,8.894-6.514c4.558-5.375,9.116-10.751,13.673-16.127c0.774-0.913,1.578-1.89,1.764-3.072
								c0.239-1.525-0.656-3.064-1.914-3.958c-1.258-0.894-2.821-1.247-4.354-1.428c-9.601-1.136-18.98,3.632-28.648,3.715
								c-3.305,0.028-8.68-0.628-11.802,0.454L311.373,283.702"/>
						</g>
					</g>
					<g>
						<path style="fill:#455A64;" d="M362.9,244.388c5.109,5.016,5.888,12.973,1.849,18.885l-8.547,12.511l-12.408,16.161
							c-3.571,4.651-10.407,5.125-14.586,1.012l-56.591-43.6c-3.601-2.774-4.365-7.899-1.729-11.603l23.04-32.383
							c2.715-3.816,8.014-4.699,11.82-1.97L362.9,244.388z"/>
					</g>
					<g>
						<g>
							<path style="fill:#263238;" d="M333.589,295.445c-0.008-0.004,0.044-0.106,0.154-0.299c0.126-0.216,0.289-0.497,0.496-0.851
								c0.454-0.737,1.133-1.818,2.031-3.194c1.792-2.755,4.436-6.707,7.723-11.576c3.278-4.874,7.232-10.647,11.507-17.125
								c1.041-1.629,2.18-3.28,3.011-5.095c0.4-0.906,0.684-1.883,0.635-2.867c-0.044-0.984-0.452-1.931-1.074-2.736
								c-1.263-1.623-3.147-2.742-4.901-4.029c-1.779-1.264-3.584-2.546-5.411-3.844c-14.588-10.404-27.791-19.821-37.38-26.66
								c-4.748-3.417-8.599-6.189-11.293-8.128c-1.306-0.953-2.33-1.701-3.055-2.231c-0.328-0.246-0.588-0.441-0.787-0.591
								c-0.176-0.136-0.263-0.209-0.258-0.216c0.005-0.007,0.103,0.051,0.289,0.173c0.207,0.139,0.477,0.32,0.817,0.549
								c0.739,0.511,1.782,1.232,3.112,2.152c2.717,1.907,6.6,4.632,11.389,7.993c9.611,6.807,22.846,16.18,37.468,26.535
								c1.826,1.298,3.631,2.581,5.409,3.846c1.743,1.287,3.647,2.402,5.007,4.141c0.667,0.862,1.128,1.923,1.173,3.022
								c0.051,1.098-0.266,2.149-0.684,3.092c-0.871,1.885-2.014,3.521-3.065,5.157c-4.302,6.473-8.286,12.221-11.604,17.069
								C337.624,289.403,333.589,295.445,333.589,295.445z"/>
						</g>
					</g>
					<g>
						<path style="fill:#263238;" d="M355.065,168.403c0,0-16.066-8.506-40.337,29.986l4.302,5.019c0,0,20.266-35.634,33.663-31.328
							c13.397,4.306-6.269,60.492-6.269,60.492S375.875,176.557,355.065,168.403z"/>
					</g>
					<g>
						<path style="fill:#E8505B;" d="M301.382,211.717c-6.8,6.968-8.127,17.781-2.811,25.938c0.184,0.282,0.37,0.555,0.557,0.816
							l21.839,33.942l18.299-11.282l0,0l-17.713-32.151c0,0,8.234-8.501,17.195-18.064c12.07-12.881,24.925-28.696,15.715-37.78
							c0,0-6.28-4.967-15.925,2.496C331.565,181.029,311.793,201.048,301.382,211.717z"/>
					</g>
				</g>
			</g>
			<g>
				<g>
					<g>
						<g>
							<g>
								<path style="fill:#FFBE9D;" d="M416.527,187.592l9.531-2.37c0,0,2.576,2.309,1.247,4.696
									c-1.329,2.387-3.576,8.424-3.576,8.424l-7.37,2.377l-2.076,5.975l-12.685-5.41l3.382-11.227l7.11-8.801l5.357-0.814
									l3.613,3.055c0,0-3.01,2.193-5.039-0.168l-2.464,0.947l0.224,1.482C413.976,187.059,415.25,187.91,416.527,187.592z"/>
							</g>
						</g>
						<g>
							<g>
								<path style="fill:#FFBE9D;" d="M426.006,185.605l6.236-3.028c0,0,1.466-0.446,2.347,0.455l0.313,0.645l-7.463,4.88
									L426.006,185.605z"/>
							</g>
						</g>
						<g>
							<g>
								<g>
									<path style="fill:#EB996E;" d="M412.901,195.321c-0.068-0.036,0.212-0.633,0.642-1.585c0.413-0.948,0.992-2.302,0.944-3.85
										c-0.023-0.772-0.222-1.467-0.549-2.057c-0.159-0.304-0.327-0.607-0.431-0.929c-0.113-0.327-0.114-0.654-0.113-0.913
										c0.021-1.072,0.145-1.715,0.211-1.713c0.077,0.002,0.085,0.661,0.157,1.698c0.002,0.541,0.216,1.009,0.597,1.626
										c0.376,0.616,0.629,1.43,0.649,2.27c0.049,1.706-0.634,3.113-1.135,4.032C413.349,194.827,412.959,195.352,412.901,195.321
										z"/>
								</g>
							</g>
						</g>
						<g>
							<g>
								<g>
									<path style="fill:#263238;" d="M441.1,172.583c0.086,0.177,1.384,2.1,1.384,2.1l-28.424,20.912l-1.779-2.268L441.1,172.583
										z"/>
								</g>
							</g>
							<g>
								<g>
									<g>
										<path style="fill:#FFBE9D;" d="M423.593,197.921c0.571-0.631,0.224-1.718-0.474-2.204
											c-0.698-0.486-1.601-0.534-2.451-0.558c-1.391-0.039-2.796-0.053-4.159,0.226c-0.449,0.092-0.908,0.223-1.257,0.521
											c-0.349,0.297-0.561,0.799-0.397,1.228c0.199,0.522,0.822,0.72,1.37,0.828c1.473,0.29,2.98,0.409,4.48,0.353"/>
									</g>
								</g>
								<g>
									<g>
										<g>
											<path style="fill:#EB996E;" d="M420.703,198.314c0.005,0.062-1.017,0.212-2.676,0.1c-0.414-0.03-0.867-0.076-1.35-0.15
												c-0.473-0.087-1.02-0.118-1.564-0.458c-0.266-0.169-0.514-0.474-0.555-0.845c-0.046-0.366,0.082-0.718,0.29-0.997
												c0.448-0.582,1.16-0.75,1.772-0.866c1.268-0.236,2.488-0.225,3.577-0.191c1.068,0.032,2.141,0.072,2.901,0.578
												c0.775,0.51,0.959,1.327,0.872,1.801c-0.094,0.502-0.373,0.656-0.378,0.634c-0.041-0.028,0.159-0.224,0.177-0.655
												c0.021-0.409-0.207-1.094-0.863-1.467c-0.664-0.395-1.636-0.409-2.719-0.412c-1.081-0.008-2.267-0.001-3.471,0.223
												c-0.597,0.105-1.17,0.276-1.461,0.662c-0.313,0.397-0.264,0.896,0.127,1.136c0.38,0.26,0.902,0.332,1.368,0.429
												c0.469,0.09,0.91,0.157,1.314,0.209C419.681,198.251,420.701,198.233,420.703,198.314z"/>
										</g>
									</g>
								</g>
							</g>
							<g>
								<g>
									<g>
										<path style="fill:#FFBE9D;" d="M425.976,192.103c-2.268-0.558-3.891-0.781-6.158-1.339c-0.74-0.182-1.54-0.36-2.242-0.065
											c-0.702,0.295-1.144,1.285-0.628,1.845c0.183,0.198,0.443,0.303,0.694,0.402c2.26,0.887,4.519,1.774,6.779,2.661"/>
									</g>
								</g>
								<g>
									<g>
										<g>
											<path style="fill:#EB996E;" d="M424.42,195.606c-0.026,0.067-1.036-0.259-2.647-0.841
												c-0.856-0.318-1.801-0.669-2.82-1.047c-0.538-0.208-1.095-0.423-1.669-0.645c-0.3-0.12-0.673-0.394-0.78-0.811
												c-0.104-0.406,0.008-0.806,0.203-1.13c0.2-0.319,0.506-0.591,0.866-0.71c0.342-0.124,0.698-0.15,1.027-0.131
												c0.664,0.044,1.239,0.234,1.782,0.36c1.056,0.244,2.036,0.47,2.924,0.676c1.673,0.38,2.687,0.707,2.67,0.775
												c-0.018,0.072-1.057-0.128-2.742-0.414c-0.843-0.146-1.85-0.322-2.961-0.569c-0.559-0.119-1.129-0.29-1.699-0.318
												c-0.573-0.032-1.142,0.12-1.423,0.604c-0.141,0.231-0.203,0.503-0.146,0.721c0.057,0.216,0.231,0.367,0.491,0.482
												c0.562,0.228,1.106,0.449,1.633,0.663c1.004,0.415,1.935,0.801,2.779,1.15
												C423.484,195.092,424.446,195.539,424.42,195.606z"/>
										</g>
									</g>
								</g>
							</g>
							<g>
								<g>
									<g>
										<path style="fill:#FFBE9D;" d="M427.439,188.558c-2.299-0.411-3.844-0.699-6.143-1.11c-0.75-0.134-1.56-0.26-2.242,0.079
											c-0.682,0.34-1.059,1.355-0.508,1.881c0.195,0.186,0.461,0.274,0.718,0.356c2.312,0.74,4.624,1.48,6.935,2.22"/>
									</g>
								</g>
								<g>
									<g>
										<g>
											<path style="fill:#EB996E;" d="M426.2,191.985c-0.022,0.068-1.047-0.191-2.687-0.667
												c-0.872-0.262-1.835-0.55-2.872-0.861c-0.548-0.172-1.115-0.349-1.7-0.533c-0.301-0.1-0.7-0.327-0.841-0.736
												c-0.143-0.392-0.07-0.806,0.101-1.141c0.171-0.337,0.45-0.626,0.799-0.78c0.33-0.153,0.683-0.204,1.012-0.212
												c0.665-0.005,1.25,0.143,1.801,0.242c1.062,0.212,2.047,0.409,2.94,0.588c1.671,0.35,2.698,0.601,2.686,0.672
												c-0.013,0.071-1.063-0.053-2.75-0.31c-0.899-0.145-1.891-0.305-2.96-0.478c-0.559-0.089-1.138-0.217-1.705-0.204
												c-0.57,0.013-1.122,0.208-1.358,0.717c-0.668,1.219,1.175,1.305,2.122,1.717c1.025,0.349,1.976,0.673,2.838,0.967
												C425.236,191.533,426.222,191.916,426.2,191.985z"/>
										</g>
									</g>
								</g>
							</g>
						</g>
					</g>
				</g>
				<g>
					<g>
						<g>
							<path style="fill:#E8505B;" d="M414.987,205.85l-18.491,39.525c-1.755,3.752-5.31,6.345-9.419,6.871h0
								c-5.328,0.682-10.467-2.233-12.617-7.155l-13.804-31.606l7.844-34.098l18.54,39.776l15.163-21.486L414.987,205.85z"/>
						</g>
					</g>
					<g>
						<g>
							<g>
								<path style="fill:#263238;" d="M381.597,232.496c-0.134-0.052,0.935-3.166,2.389-6.956c1.454-3.791,2.741-6.822,2.876-6.77
									c0.134,0.051-0.935,3.165-2.389,6.956C383.019,229.517,381.731,232.548,381.597,232.496z"/>
							</g>
						</g>
					</g>
				</g>
			</g>
			<g>
				<g>
					<path style="fill:#263238;" d="M377.5,266.387c-0.011,0.037-0.051-0.282-0.106-0.833c-0.056-0.605-0.131-1.42-0.225-2.445
						c-0.185-2.175-0.446-5.236-0.767-8.996c-0.663-7.638-1.572-18.108-2.576-29.675c-1.051-11.587-2.091-22.068-2.925-29.644
						c-0.428-3.749-0.777-6.801-1.024-8.968c-0.119-1.022-0.213-1.835-0.283-2.438c-0.061-0.558-0.086-0.852-0.068-0.855
						c0.018-0.003,0.077,0.287,0.172,0.84c0.094,0.601,0.221,1.409,0.38,2.426c0.312,2.11,0.728,5.168,1.189,8.953
						c0.928,7.57,2.027,18.049,3.078,29.64c1.052,11.587,1.877,22.088,2.425,29.693c0.252,3.767,0.456,6.832,0.602,9.01
						c0.053,1.028,0.096,1.845,0.128,2.452C377.521,266.1,377.525,266.422,377.5,266.387z"/>
				</g>
			</g>
		</g>
		<g>
			<g>
				<g>
					<path style="fill:#FFBE9D;" d="M335.448,263.401l2.411,5.036c0,0,4.783,0.578,6.761,1.497c1.978,0.919,9.089,7.103,9.089,7.103
						s-0.854,1.782-2.713,1.255c-0.834-0.237-4.504-3.019-4.504-3.019l0,0c-1.696,0.253-2.559,2.243-1.597,3.686
						c1.414,2.12,3.048,4.597,3.201,4.952c0.171,0.395,3.307,1.716,5.662,2.66c1.412,0.567,1.266,2.809-0.243,3.023
						c-0.156,0.022-0.299,0.009-0.422-0.048c0,0,1.137,2.396-3.009,1.706c0,0-2.743,1.87-4.87,0.715c0,0-3.909,0.884-5.638,0.309
						c-1.728-0.576-8.909-10.689-8.909-10.689l-6.234-11.308L335.448,263.401z"/>
				</g>
			</g>
			<g>
				<g>
					<g>
						<path style="fill:#EB996E;" d="M341.932,281.53c-0.063,0.034,0.223,0.815,0.818,2.026c0.607,1.184,1.543,2.891,3.245,4.148
							c1.731,1.231,3.644,1.505,4.941,1.65c1.321,0.125,2.137,0.105,2.145,0.033c0.009-0.084-0.801-0.207-2.088-0.431
							c-1.269-0.241-3.085-0.58-4.676-1.717c-1.576-1.158-2.542-2.761-3.225-3.882C342.417,282.213,342.004,281.491,341.932,281.53z
							"/>
					</g>
				</g>
			</g>
			<g>
				<g>
					<g>
						<path style="fill:#EB996E;" d="M339.889,283.86c-0.072,0.018,0.08,0.795,0.65,1.894c0.282,0.549,0.655,1.183,1.134,1.845
							c0.492,0.643,1.05,1.384,1.919,1.882c0.847,0.468,1.703,0.702,2.469,0.918c0.704,0.186,1.38,0.364,2.034,0.536
							c1.162,0.294,1.892,0.438,1.914,0.363c0.022-0.075-0.668-0.356-1.801-0.748c-0.564-0.196-1.247-0.424-2.003-0.654
							c-0.748-0.239-1.581-0.49-2.341-0.912c-0.737-0.414-1.294-1.105-1.787-1.708c-0.483-0.621-0.882-1.215-1.199-1.725
							C340.237,284.531,339.965,283.836,339.889,283.86z"/>
					</g>
				</g>
			</g>
			<g>
				<g>
					<g>
						<path style="fill:#EB996E;" d="M337.744,286.739c-0.188,0.128,1.09,1.939,2.759,4.004c0.254,0.353,0.605,0.484,0.888,0.629
							c0.298,0.135,0.588,0.242,0.87,0.328c0.561,0.176,1.079,0.282,1.519,0.336c0.884,0.112,1.439,0,1.433-0.072
							c-0.003-0.084-0.534-0.116-1.36-0.323c-0.413-0.102-0.901-0.243-1.427-0.437c-0.263-0.096-0.536-0.207-0.804-0.337
							c-0.263-0.138-0.549-0.266-0.681-0.477c-0.841-1.061-1.63-1.967-2.208-2.627C338.144,287.108,337.799,286.713,337.744,286.739
							z"/>
					</g>
				</g>
			</g>
		</g>
		<g>
			<g>
				<path style="fill:#263238;" d="M366.984,168.827c0.144,0.035-0.275,2.229-0.741,4.937c-0.471,2.709-0.814,4.915-0.961,4.9
					c-0.139-0.014-0.027-2.26,0.447-4.989C366.199,170.947,366.848,168.793,366.984,168.827z"/>
			</g>
		</g>
		<g>
			<g>
				<path style="fill:#263238;" d="M359.309,171.859c-0.137-0.044,0.143-1.301,0.625-2.808c0.482-1.507,0.984-2.693,1.121-2.649
					c0.137,0.044-0.143,1.301-0.625,2.808C359.948,170.717,359.446,171.903,359.309,171.859z"/>
			</g>
		</g>
		<g>
			<g>
				<path style="fill:#263238;" d="M353.646,169.081c-0.128-0.066,0.313-1.18,0.984-2.489c0.672-1.31,1.32-2.318,1.448-2.252
					c0.128,0.066-0.313,1.18-0.984,2.49C354.422,168.138,353.774,169.146,353.646,169.081z"/>
			</g>
		</g>
		<g>
			<g>
				<path style="fill:#263238;" d="M346.22,168.224c-0.114-0.087,0.769-1.44,1.974-3.02c1.205-1.581,2.274-2.792,2.388-2.705
					c0.114,0.087-0.769,1.439-1.974,3.021C347.404,167.1,346.335,168.311,346.22,168.224z"/>
			</g>
		</g>
		<g>
			<g>
				<path style="fill:#263238;" d="M321.648,229.322c-0.062,0.061-0.629-0.488-1.657-1.208c-1.024-0.722-2.552-1.568-4.382-2.112
					c-1.834-0.536-3.576-0.655-4.828-0.604c-1.254,0.047-2.028,0.2-2.047,0.115c-0.015-0.054,0.737-0.338,2.022-0.482
					c1.279-0.148,3.098-0.085,5.001,0.472c1.9,0.564,3.462,1.499,4.456,2.317C321.212,228.639,321.69,229.285,321.648,229.322z"/>
			</g>
		</g>
		<g>
			<g>
				<path style="fill:#263238;" d="M316.275,216.542c0.039-0.045,0.708,0.439,1.608,1.418c0.9,0.975,1.99,2.482,2.827,4.34
					c0.831,1.861,1.231,3.678,1.36,4.998c0.132,1.323,0.048,2.144-0.011,2.143c-0.171,0.022-0.168-3.299-1.824-6.929
					C318.627,218.863,316.145,216.656,316.275,216.542z"/>
			</g>
		</g>
		<g>
			<g>
				<path style="fill:#263238;" d="M339.372,260.893c-0.014,0.008-0.149-0.2-0.392-0.605c-0.262-0.447-0.61-1.042-1.048-1.789
					c-0.919-1.611-2.21-3.876-3.807-6.678c-3.215-5.731-7.657-13.648-12.676-22.594l-0.093-0.165l0.131-0.138
					c1.243-1.309,2.552-2.688,3.882-4.088c8.003-8.377,15.246-15.959,20.53-21.49c2.619-2.705,4.75-4.907,6.264-6.471
					c0.722-0.73,1.296-1.31,1.722-1.741c0.398-0.394,0.613-0.595,0.626-0.583c0.013,0.012-0.177,0.238-0.55,0.655
					c-0.409,0.448-0.959,1.05-1.651,1.809c-1.485,1.592-3.576,3.832-6.144,6.585c-5.255,5.558-12.459,13.176-20.419,21.595
					c-1.331,1.399-2.641,2.776-3.885,4.084l0.038-0.303c4.96,8.98,9.349,16.926,12.526,22.678c1.54,2.834,2.784,5.124,3.67,6.754
					c0.405,0.766,0.727,1.375,0.969,1.833C339.28,260.661,339.386,260.885,339.372,260.893z"/>
			</g>
		</g>
		<g style="opacity:0.3;">
			<g>
				<path d="M329.79,220.561l7.136,5.117c0.819-0.312,2.083-1.491,2.593-2.203c5.356-7.475,9.299-15.959,11.559-24.872
					L329.79,220.561z"/>
			</g>
		</g>
		<g>
			<g>
				<path style="fill:#F5F5F5;" d="M340.102,209.317c-0.11,0.024,0.057-1.624-1.162-3.793c-0.606-1.065-1.54-2.226-2.83-3.214
					c-1.283-1.002-2.89-1.837-4.65-2.533c-1.759-0.71-3.51-1.194-5.068-1.821c-1.553-0.617-2.887-1.452-3.729-2.433
					c-0.86-0.963-1.248-1.975-1.362-2.679c-0.114-0.711-0.018-1.106,0.004-1.102c0.048,0,0.025,0.394,0.194,1.059
					c0.168,0.66,0.586,1.59,1.435,2.472c0.832,0.897,2.107,1.656,3.634,2.236c1.525,0.587,3.296,1.063,5.083,1.783
					c1.789,0.708,3.44,1.58,4.754,2.64c1.326,1.05,2.269,2.285,2.857,3.416c0.59,1.137,0.81,2.166,0.875,2.871
					C340.195,208.928,340.127,209.318,340.102,209.317z"/>
			</g>
		</g>
		<g>
			<g>
				<path style="fill:#F5F5F5;" d="M372.796,213.777c-0.008,0.044-0.479-0.029-1.332-0.09c-0.853-0.064-2.091-0.088-3.616,0.022
					c-1.526,0.109-3.331,0.368-5.341,0.676c-2.009,0.303-4.24,0.633-6.614,0.64c-2.368,0-4.663-0.38-6.548-1.278
					c-1.88-0.899-3.289-2.22-4.16-3.522c-0.874-1.31-1.221-2.574-1.289-3.441c-0.029-0.437-0.032-0.774,0.002-1.002
					c0.022-0.228,0.042-0.345,0.06-0.344c0.057,0.002,0.008,0.481,0.139,1.32c0.127,0.834,0.514,2.027,1.391,3.257
					c0.872,1.223,2.253,2.462,4.06,3.298c1.809,0.833,4.03,1.192,6.345,1.192c2.324-0.007,4.534-0.317,6.545-0.594
					c2.013-0.282,3.841-0.505,5.388-0.569c1.547-0.064,2.803,0.017,3.659,0.144C372.342,213.61,372.801,213.751,372.796,213.777z"/>
			</g>
		</g>
		<g>
			<g>
				<path style="fill:#F5F5F5;" d="M379.509,204.463c0.116,0.057-0.938,1.926-3.031,3.464c-2.081,1.556-4.175,2.021-4.196,1.893
					c-0.053-0.15,1.892-0.817,3.885-2.311C378.177,206.036,379.381,204.369,379.509,204.463z"/>
			</g>
		</g>
		<g>
			<g>
				<path style="fill:#F5F5F5;" d="M382.359,211.202c0.113,0.055-1.316,2.37-4.014,4.264c-2.683,1.917-5.341,2.496-5.355,2.371
					c-0.055-0.154,2.458-0.938,5.054-2.796C380.658,213.21,382.232,211.1,382.359,211.202z"/>
			</g>
		</g>
		<g>
			<g>
				<path style="fill:#F5F5F5;" d="M374.101,224.978c-0.044,0.123-2.001-1.435-5.812-1.809c-1.885-0.199-4.149-0.135-6.668,0.018
					c-2.513,0.158-5.324,0.288-8.244-0.052c-5.858-0.63-10.88-2.683-14.189-4.601c-1.673-0.945-2.922-1.874-3.78-2.512
					c-0.835-0.673-1.279-1.063-1.258-1.09c0.023-0.029,0.511,0.307,1.377,0.926c0.89,0.585,2.161,1.46,3.84,2.354
					c3.324,1.818,8.293,3.784,14.067,4.405c2.879,0.335,5.639,0.222,8.164,0.09c2.522-0.127,4.82-0.154,6.735,0.096
					c1.916,0.248,3.411,0.78,4.366,1.274c0.486,0.235,0.834,0.469,1.064,0.634C373.995,224.872,374.111,224.963,374.101,224.978z"/>
			</g>
		</g>
		<g>
			<g>
				<path style="fill:#F5F5F5;" d="M336.006,212.738c0.026,0.011-0.042,0.234-0.214,0.692l-0.07,0.186l-0.078-0.19
					c-0.318-0.768-1.277-2.248-3.234-3.326c-0.96-0.549-2.13-0.984-3.426-1.361c-1.294-0.384-2.719-0.715-4.163-1.235
					c-3.606-1.307-6.332-3.605-7.916-5.504c-0.803-0.951-1.363-1.79-1.706-2.392c-0.345-0.602-0.497-0.954-0.47-0.969
					c0.085-0.053,0.804,1.31,2.452,3.118c1.626,1.803,4.314,3.988,7.817,5.258c1.405,0.507,2.821,0.846,4.128,1.252
					c1.307,0.398,2.513,0.872,3.496,1.472c2.006,1.177,2.949,2.805,3.172,3.63l-0.148-0.003
					C335.863,212.928,335.98,212.727,336.006,212.738z"/>
			</g>
		</g>
	</g>
</g>
<g id="Floor">
	<g>
		<g>
			<path style="fill:#263238;" d="M478.058,467.48c0,0.144-103.031,0.26-230.097,0.26c-127.11,0-230.119-0.117-230.119-0.26
				c0-0.144,103.009-0.26,230.119-0.26C375.027,467.22,478.058,467.336,478.058,467.48z"/>
		</g>
	</g>
</g>
</svg>
